<?xml version="1.0" encoding="UTF-8"?><svg id="logo5" xmlns="http://www.w3.org/2000/svg" viewBox="0 0 407 251"><defs><style>.cls-1,.cls-2,.cls-3,.cls-4{stroke-width:0px;}.cls-2{fill:#754c24;}.cls-3{fill:#42210b;}.cls-4{fill:#fbb03b;}

#logo5:hover #text {
    transform:scale(2) ;
    transition: transform 3s ease-in-out ;
    transform-origin: center; 
     
    
}
#logo5:hover #textbg {
    transform:scale(2);
    transition: transform 3s ease-in-out;
        transform-origin: center; 


}


</style>
<script>
      // select elements you want to interact with first
      let thePath = document.querySelector('#logo5');

      // functions always go in the middle
      function logMyId() {        
        console.log("Dr.Nut_logo with brown block");
      }

      // event handling at the bottom
      document.addEventListener('click', logMyId);
    </script>
</defs><g id="square2"><rect class="cls-3" x="1.5" y="1.5" width="404" height="248"/><path class="cls-1" d="M404,3v245H3V3h401M407,0H0v251h407V0h0Z"/></g>
<g id="square1">
<rect class="cls-2" x="12.5" y="9.5" width="383" height="230"/>
<path class="cls-1" d="M394,11v227H14V11h380M397,8H11v233h386V8h0Z"/></g>

<g id="textbg">
<rect class="cls-4" x="75.5" y="82.5" width="256" height="85"/>
<path class="cls-1" d="M330,84v82H77v-82h253M333,81H74v88h259v-88h0Z"/>
</g>

<g id="text">

<path id="path1" class="cls-1" d="M111.28,104.95c3.26,0,5.99.25,8.17.76,2.19.51,4.13,1.31,5.83,2.4s3.07,2.4,4.12,3.91c1.04,1.51,1.82,3.27,2.33,5.27s.76,4.26.76,6.78c0,3.05-.36,5.78-1.07,8.2s-1.78,4.49-3.21,6.21c-1.27,1.54-2.83,2.81-4.67,3.81s-3.97,1.7-6.37,2.11c-2.07.35-4.68.53-7.82.53h-13.3v-1.93c.72-.19,1.29-.41,1.71-.63.42-.22.73-.54.94-.94s.34-.91.4-1.52.09-1.39.09-2.33v-25.25c0-.92-.02-1.69-.07-2.31-.05-.62-.18-1.13-.38-1.52-.21-.39-.52-.71-.94-.95-.42-.24-1-.46-1.74-.66v-1.93h15.22ZM108.26,141.4c.35.06,1.24.09,2.67.09,2.15,0,3.96-.31,5.42-.94,1.09-.47,2.02-1.11,2.78-1.93,1.27-1.35,2.23-3.1,2.87-5.24.7-2.34,1.05-5.2,1.05-8.58,0-3.71-.5-6.79-1.49-9.24-1-2.45-2.4-4.26-4.2-5.42-1.81-1.16-3.97-1.74-6.49-1.74-1.21,0-2.08.02-2.61.06v32.94h0Z"/>

<path id="path2" class="cls-1" d="M153.7,144.94h-15.38v-1.93c.72-.19,1.29-.41,1.71-.63.42-.22.73-.54.94-.94s.34-.91.4-1.52.09-1.39.09-2.33v-25.25c0-.92-.02-1.69-.07-2.31s-.18-1.13-.38-1.52c-.21-.39-.52-.71-.94-.95-.42-.24-1-.46-1.74-.66v-1.93h17.08c2.3,0,4.26.16,5.87.48s3.02.82,4.23,1.48c1.02.55,1.88,1.24,2.58,2.07.7.83,1.25,1.8,1.63,2.9s.57,2.39.57,3.85c0,1.91-.34,3.56-1.01,4.92-.67,1.37-1.58,2.5-2.72,3.41s-2.67,1.76-4.58,2.56v.29c1.45.63,2.64,1.46,3.59,2.5s1.8,2.37,2.56,3.97l1.85,3.98c.82,1.78,1.64,3.11,2.45,4s1.77,1.43,2.89,1.63v1.93h-11.28c-1.13-1.56-2.41-3.89-3.84-6.97l-2.29-5.01c-.68-1.48-1.27-2.54-1.76-3.16s-.99-1.05-1.51-1.29c-.52-.23-1.31-.35-2.39-.35h-1.7v9.43c0,1.46.07,2.49.21,3.08s.4,1.05.79,1.41c.39.35,1.11.66,2.17.94v1.92h-.02ZM150.54,108.44v16.29h2.9c1.56,0,2.85-.21,3.87-.63s1.82-1.01,2.42-1.76,1.01-1.64,1.23-2.65c.22-1.02.34-2.13.34-3.34,0-2.66-.63-4.65-1.88-5.98-1.25-1.33-3.11-1.99-5.57-1.99-1.68,0-2.78.02-3.31.06Z"/>

<path id="path3" class="cls-1" d="M186.11,136.09v8.85h-7.88v-8.85h7.88Z"/>
<path id="path4" class="cls-1" d="M240.66,104.95v1.93c-.78.25-1.33.47-1.66.64s-.6.41-.82.7c-.22.29-.4.74-.51,1.33-.12.6-.18,1.51-.18,2.74v32.64h-7.44l-13.18-22.79c-1.78-3.09-3.09-5.51-3.93-7.27h-.26c.19,4.2.29,8.63.29,13.3v9.43c0,1.46.07,2.49.22,3.08s.41,1.05.79,1.39c.38.34,1.1.65,2.15.92v1.93h-11.07v-1.93c.72-.19,1.29-.41,1.71-.64.42-.23.73-.55.94-.95.21-.4.34-.9.4-1.51.06-.6.09-1.37.09-2.29v-25.34c0-1.46-.06-2.48-.19-3.03-.13-.56-.39-1.02-.79-1.39-.4-.37-1.12-.69-2.15-.97v-1.93h11.87l10.37,18.02c.64,1.13,1.48,2.67,2.52,4.6,1.04,1.93,1.95,3.76,2.75,5.48h.47c-.22-4.67-.32-9.77-.32-15.29v-5.45c0-1.27-.05-2.19-.15-2.75-.1-.57-.25-1-.45-1.29s-.48-.54-.82-.73-.91-.41-1.71-.64v-1.93h11.06Z"/>
<path id="path5" class="cls-5" d="M271.71,112.3c0-1.46-.06-2.49-.19-3.06-.13-.58-.38-1.04-.75-1.39s-1.09-.67-2.17-.97v-1.93h12.89v1.93c-.7.2-1.26.41-1.67.63s-.72.54-.94.94c-.22.4-.35.91-.41,1.52s-.09,1.39-.09,2.33v18.31c0,2.42-.2,4.45-.59,6.08-.39,1.63-1,3-1.82,4.12s-1.84,2.01-3.06,2.7c-1.22.68-2.59,1.17-4.12,1.46s-3.23.44-5.13.44c-2.77,0-5.12-.29-7.03-.86-1.91-.58-3.47-1.45-4.67-2.61-1.2-1.16-2.09-2.57-2.67-4.23-.58-1.66-.86-3.8-.86-6.42v-18.96c0-.92-.02-1.69-.07-2.31s-.18-1.13-.38-1.52c-.21-.39-.52-.71-.94-.95-.42-.24-1-.46-1.74-.66v-1.93h15.38v1.93c-.8.22-1.39.44-1.77.69-.38.24-.67.54-.86.89-.2.35-.33.81-.41,1.38-.08.57-.12,1.4-.12,2.49v19.34c0,1.54.1,2.95.29,4.22s.55,2.36,1.07,3.27,1.23,1.61,2.15,2.09c.92.49,2.1.73,3.54.73,1.99,0,3.48-.4,4.45-1.2.98-.8,1.67-1.92,2.07-3.35.4-1.44.6-3.58.6-6.43v-18.71h.02Z"/>
<path id="path6" class="cls-1" d="M294.77,144.94v-1.93c.82-.14,1.47-.32,1.95-.54.48-.22.83-.54,1.07-.95s.38-.93.44-1.57c.06-.63.09-1.42.09-2.36v-29.21h-2.37c-1.17,0-2.07.14-2.7.41-.62.27-1.17.7-1.63,1.29s-.85,1.37-1.19,2.36c-.33.99-.61,1.92-.82,2.8h-4.01v-10.28h34.48v10.28h-4.01c-.37-1.33-.66-2.3-.88-2.93-.21-.62-.45-1.16-.72-1.6s-.54-.81-.83-1.1-.61-.53-.94-.7-.75-.31-1.25-.4-1.15-.13-1.95-.13h-2.11v29.21c0,1.04.03,1.82.09,2.36.06.54.17.97.32,1.3.16.33.35.6.57.81s.54.39.94.56c.4.17.94.3,1.63.4v1.93h-16.17Z"/>
</g>
</svg>