<?xml version="1.0" encoding="UTF-8"?><svg id="logo6" xmlns="http://www.w3.org/2000/svg" viewBox="0 0 363.07 363.07"><defs>
<style>.cls-1,.cls-2,.cls-3,.cls-4,.cls-5,.cls-6,.cls-7{stroke-width:0px;}.cls-2{fill:#754c24;}.cls-8{fill:#ed1c24;}.cls-8,.cls-9,.cls-10,.cls-11{stroke-miterlimit:10;stroke-width:2px;}.cls-8,.cls-9,.cls-10,.cls-11,.cls-12{stroke:#fff;}.cls-9,.cls-3{fill:#fff;}.cls-10,.cls-12{fill:#f0f;}.cls-11{fill:none;}.cls-4{fill:#603813;}.cls-5{fill:lime;}.cls-6{fill:#8c6239;}.cls-12{stroke-miterlimit:10;stroke-width:2px;}.cls-7{fill:#c69c6d;}

svg:hover{
     
       width: 100px;
        height: 100px;
        animation: pulse 2s cubic-bezier(0.165, 0.84, 0.44, 1) infinite alternate, rotate 4s linear infinite;
    }

    @keyframes pulse {
        0% {
            transform: scale(1);
        }
        100% {
            transform: scale(1.2);
        }
    }

    @keyframes rotate {
        from {
            transform: rotate(0deg);
        }
        to {
            transform: rotate(360deg);
        }
    }

   
</style>
<script>
      // select elements you want to interact with first
      let thePath = document.querySelector('#logo6');

      // functions always go in the middle
      function logMyId() {        
        console.log("Dr.Nut_logo with nuts and glasses");
      }

      // event handling at the bottom
      document.addEventListener('click', logMyId);
    </script>
</defs><g id="hexagon2"><polygon class="cls-4" points="25.58 270.96 26.12 91.16 182.1 1.73 337.54 92.09 337 271.89 181.02 361.33 25.58 270.96"/><path class="cls-1" d="M182.09,3.46l153.95,89.49-.53,178.07-154.48,88.57L27.08,270.1l.53-178.07L182.09,3.46M182.1,0L24.62,90.3l-.54,181.53,156.94,91.24,157.48-90.3.54-181.53L182.1,0h0Z"/></g><g id="hexagon1"><polygon class="cls-6" points="91.63 337.72 1.73 182.01 91.63 26.3 271.44 26.3 361.34 182.01 271.44 337.72 91.63 337.72"/><path class="cls-1" d="M92.5,27.8h178.07l89.03,154.21-89.03,154.21H92.5L3.47,182.01,92.5,27.8M90.77,24.8L0,182.01l90.77,157.21h181.53l90.77-157.21L272.3,24.8H90.77Z"/></g><g id="circle"><circle class="cls-7" cx="181.61" cy="186.03" r="157"/><path class="cls-1" d="M181.61,30.53c41.54,0,80.59,16.17,109.96,45.54,29.37,29.37,45.54,68.42,45.54,109.96s-16.17,80.59-45.54,109.96-68.42,45.54-109.96,45.54-80.59-16.17-109.96-45.54c-29.37-29.37-45.54-68.42-45.54-109.96s16.17-80.59,45.54-109.96c29.37-29.37,68.42-45.54,109.96-45.54M181.61,27.53C94.07,27.53,23.11,98.49,23.11,186.03s70.96,158.5,158.5,158.5,158.5-70.96,158.5-158.5S269.15,27.53,181.61,27.53h0Z"/></g><g id="leaf"><path class="cls-5" d="M159.77,313.13c-16.96-5.76-34.38-11.78-47.97-23.45-5.98-5.13-11.05-11.23-15.76-17.54-10.83-14.52-19.91-30.34-26.98-47.02-.45-1.05-.88-2.28-.34-3.29.62-1.16,2.16-1.39,3.48-1.47,22.45-1.26,45.13,1.86,66.41,9.13,4.67,1.6,9.33,3.42,13.35,6.27,3.83,2.71,6.96,6.26,10.06,9.78,6.63,7.53,13.37,15.23,17.36,24.44s4.83,20.36-.26,29c-3.95,6.7-11.32,11.24-19.08,11.76"/><path class="cls-1" d="M160.17,311.68c-18.76-6.37-37.99-13.17-52.18-27.63-7.23-7.37-13.32-15.91-18.94-24.55-5.68-8.73-10.76-17.85-15.19-27.28-1.12-2.39-2.21-4.8-3.24-7.23-.31-.74-1.12-2.13-.26-2.75.79-.57,2.34-.41,3.25-.45,5.42-.26,10.85-.27,16.27-.02,10.94.5,21.82,2.03,32.48,4.58,5.28,1.26,10.49,2.77,15.63,4.51,4.89,1.66,9.78,3.57,13.93,6.71,4.09,3.1,7.42,7.16,10.78,11,3.28,3.74,6.52,7.53,9.37,11.61,5.58,7.97,9.69,17.22,9.02,27.15-.62,9.14-6.16,17.31-14.86,20.55-1.99.74-4.07,1.21-6.19,1.37-1.91.14-1.93,3.14,0,3,9.45-.71,18.08-6.63,21.82-15.39,4.02-9.39,2.37-20.22-1.91-29.22-4.58-9.63-11.97-17.78-19.07-25.63-3.67-4.06-7.67-7.69-12.59-10.19-4.93-2.51-10.3-4.21-15.59-5.8-11.12-3.33-22.58-5.54-34.14-6.64-5.79-.55-11.61-.82-17.43-.79-2.83.01-5.66.09-8.49.25-2.16.12-4.82.5-5.54,2.94-.69,2.32,1,4.97,1.9,7.01,1.16,2.62,2.36,5.23,3.62,7.81,2.41,4.95,5,9.82,7.77,14.58,5.53,9.53,11.74,18.74,18.67,27.31,6.81,8.42,14.71,15.56,24.09,21.02,9.11,5.3,19,9.1,28.93,12.57,2.42.85,4.85,1.67,7.29,2.5,1.83.62,2.62-2.28.8-2.9h0Z"/></g><path class="cls-2" d="M180.25,268.6c-8.22-17.77-4.68-41.07,10.3-53.68s40.65-11.01,52.1,4.87c3.41,4.73,6.1,10.83,11.69,12.48,2.41.71,5.01.44,7.43,1.11s4.77,2.95,4.12,5.37c-.27,1.01-1.01,1.82-1.64,2.67-8.57,11.63,5.19,28.72-.13,42.15-1.88,4.76-5.93,8.29-10.08,11.28-12.26,8.83-27.1,14.63-42.19,14.13-11.95-.39-24.95-5.99-29.06-17.22"/><path class="cls-1" d="M181.54,267.84c-7.49-16.36-4.87-37.85,8.49-50.47,12.03-11.35,32.69-12.69,45.84-2.46,3.48,2.71,5.86,6.15,8.25,9.8,2.45,3.75,5.3,7.67,9.82,9,2.65.78,5.75.21,8.26,1.43.93.46,1.97,1.26,2.24,2.32.31,1.24-.81,2.28-1.48,3.2-2.46,3.36-3.26,7.53-3.06,11.62.43,8.75,4.6,17.1,3.92,25.93-.38,4.98-3.04,9.01-6.69,12.29-4.09,3.67-8.91,6.66-13.77,9.21-9.85,5.17-21.01,8.31-32.2,7.75-8.72-.44-18.17-3.65-23.81-10.64-1.32-1.63-2.37-3.49-3.11-5.45-.67-1.79-3.57-1.02-2.89.8,3.46,9.21,12.19,14.8,21.44,17.08,10.89,2.68,22.66.99,33.04-2.89,5.53-2.07,10.82-4.77,15.76-8,4.72-3.08,9.62-6.6,12.58-11.51,5.18-8.61,1.63-18.74-.28-27.76-.88-4.16-1.62-8.63-.4-12.8.28-.96.67-1.88,1.17-2.75.66-1.15,1.64-2.11,2.23-3.29,1.21-2.38.34-4.99-1.64-6.64-2.27-1.89-5.05-2.05-7.87-2.31-2.69-.25-4.9-1.16-6.83-3.07-3.39-3.36-5.33-7.89-8.44-11.49-11.83-13.68-34.19-15.13-48.96-5.58-16.63,10.75-22.1,33.3-16.7,51.61.67,2.27,1.52,4.47,2.5,6.61.81,1.73,3.39.21,2.59-1.54h0Z"/><path class="cls-1" d="M182.63,292.67c1.93,0,1.93-3,0-3s-1.93,3,0,3h0Z"/><path class="cls-5" d="M177.79,296.86c-1.44-2.92-3.74-5.32-6.03-7.64-16.13-16.43-34.13-32.71-56.54-37.98"/><path class="cls-1" d="M179.08,296.11c-2.4-4.72-6.65-8.39-10.36-12.07-3.66-3.63-7.4-7.18-11.27-10.58-7.8-6.83-16.22-13.11-25.54-17.71-5.2-2.57-10.65-4.61-16.29-5.95-1.88-.45-2.68,2.44-.8,2.89,19.85,4.73,36.03,18.04,50.29,32.01,1.98,1.94,3.94,3.91,5.88,5.89,2.1,2.15,4.12,4.34,5.5,7.04.88,1.71,3.46.19,2.59-1.52h0Z"/><path class="cls-1" d="M181.91,271.43c1.93,0,1.93-3,0-3s-1.93,3,0,3h0Z"/><path class="cls-2" d="M262.95,235.35c-1.38,2.77-4.77,4.08-7.85,3.84-3.08-.24-5.92-1.74-8.54-3.38-5.7-3.56-10.89-7.92-15.38-12.91-1.09-1.21-2.26-2.54-3.86-2.88-2.18-.46-4.32,1.06-6.54,1-2.96-.08-5.13-2.84-7.95-3.72-3.26-1.01-6.7.63-9.71,2.23-2.69,1.43-5.41,2.87-7.68,4.9-1.82,1.63-3.3,3.6-4.77,5.55-1.04,1.38-2.08,2.77-3.12,4.15-1.59,2.12-3.25,4.4-3.41,7.04-.04.66,0,1.38-.36,1.93-.43.66-1.27.88-2,1.19-2.44,1.06-3.99,3.86-3.6,6.49"/><path class="cls-1" d="M261.65,234.59c-1.6,2.98-5.29,3.57-8.32,2.78-3.79-.99-7.25-3.52-10.37-5.8-3.19-2.34-6.18-4.97-8.93-7.81-2.46-2.54-4.64-5.82-8.64-5.23-1.67.25-3.39,1.24-5.1.94-1.53-.27-2.86-1.38-4.15-2.19-3.42-2.15-6.9-2.12-10.57-.59-3.56,1.49-7.17,3.45-10.2,5.85-3.1,2.46-5.35,5.82-7.71,8.95-1.31,1.74-2.74,3.45-3.76,5.39-.47.9-.88,1.87-1.08,2.87-.16.75.04,2.21-.55,2.71-.65.56-1.73.72-2.45,1.24-.73.53-1.33,1.17-1.84,1.91-1.04,1.49-1.52,3.37-1.31,5.18.22,1.89,3.23,1.92,3,0-.18-1.54.22-3.03,1.33-4.16,1.07-1.09,2.7-1.21,3.72-2.34,1.24-1.36.74-3.5,1.4-5.13.69-1.71,1.89-3.2,2.99-4.66,2.4-3.19,4.65-6.7,7.7-9.31,1.45-1.23,3.09-2.22,4.75-3.14,1.76-.98,3.55-2,5.43-2.74,1.83-.72,3.86-1.19,5.77-.46,1.45.55,2.67,1.59,4,2.36,1.4.81,2.96,1.4,4.61,1.27,1.7-.13,3.3-1.04,5-1.06,1.78-.03,2.97,1.66,4.05,2.85,1.33,1.46,2.71,2.86,4.15,4.2,2.81,2.62,5.84,5.03,9.03,7.18,3.49,2.36,7.34,4.78,11.67,5.02,3.53.2,7.26-1.4,8.97-4.6.91-1.67-1.67-3.18-2.59-1.48h0Z"/><path class="cls-2" d="M262.93,237.28c-5.68,2.44-7.65,9.55-7.58,15.73.07,6.18,1.45,12.53-.41,18.42-.21.68-.49,1.37-1,1.86-.57.55-1.37.78-2.07,1.15-3.44,1.82-3.95,6.41-5.51,9.98-1.91,4.38-5.83,7.64-10.13,9.7-4.31,2.07-9.03,3.08-13.7,4.07-2.51.53-5.1,1.07-7.61.56-2.24-.45-4.28-1.69-6.54-1.94-2.81-.31-5.6.95-8.43.76-6.15-.42-10.2-7.38-16.32-8.15"/><path class="cls-1" d="M262.18,235.99c-6.8,3.06-8.53,11.45-8.29,18.18.16,4.69,1.02,9.5.25,14.18-.17,1.01-.37,2.07-.75,3.02-.42,1.08-1.32,1.27-2.27,1.78-1.51.81-2.65,2.16-3.44,3.67-1.69,3.21-2.14,6.88-4.33,9.85-2.47,3.35-6.22,5.64-10.06,7.1-4.37,1.67-9.15,2.77-13.77,3.49-2.44.38-4.56.09-6.86-.76-2.15-.8-4.18-1.39-6.5-1.15-2.34.24-4.74,1.11-7.1.6-1.8-.39-3.39-1.37-4.88-2.42-3.17-2.21-6.18-4.97-10.15-5.55-.81-.12-1.6.2-1.85,1.05-.2.7.25,1.73,1.05,1.85,3.52.51,6.22,2.95,9.02,4.95,3.07,2.19,6.27,3.63,10.12,3.13,2.28-.3,4.57-1.04,6.86-.46,2.26.57,4.28,1.67,6.63,1.9,2.37.23,4.76-.27,7.06-.76,2.42-.51,4.83-1.03,7.21-1.69,4.22-1.18,8.33-2.88,11.79-5.61,3.15-2.48,5.31-5.64,6.61-9.42.59-1.69,1.05-3.46,1.96-5.02.39-.66.85-1.27,1.46-1.74.79-.6,1.79-.84,2.59-1.43,1.68-1.24,2.15-3.63,2.48-5.57.39-2.34.44-4.69.34-7.05-.32-7.57-2.44-19.57,6.33-23.52,1.76-.8.23-3.39-1.51-2.6h0Z"/><path class="cls-2" d="M255.69,239.99c-11.25,2.96-23.99-.64-32.03-9.05-4.44,3.57-10.58,4.91-16.1,3.51.14,3.96-4.92,5.59-7.7,8.41-2.14,2.16-2.99,5.27-4.79,7.72-3.77,5.16-11.95,6.35-17.04,2.49"/><path class="cls-1" d="M255.3,238.54c-10.84,2.78-22.79-.63-30.57-8.66-.61-.63-1.49-.49-2.12,0-4.09,3.22-9.61,4.34-14.64,3.12-.94-.23-1.9.45-1.9,1.45,0,2.74-3.39,4.28-5.28,5.69-1.34,1-2.5,2.1-3.45,3.49-1.04,1.54-1.75,3.27-2.69,4.86-3.2,5.46-10.72,7.05-15.85,3.28-1.56-1.14-3.06,1.46-1.51,2.59,5.85,4.3,14.84,2.82,19.09-3.03,1.25-1.72,2.03-3.72,3.13-5.53.99-1.63,2.31-2.75,3.85-3.83,2.67-1.88,5.72-3.89,5.71-7.52-.63.48-1.27.96-1.9,1.45,6.17,1.49,12.59.02,17.56-3.89h-2.12c8.52,8.8,21.63,12.48,33.49,9.44,1.86-.49,1.07-3.39-.8-2.91h0Z"/><path class="cls-2" d="M253.8,241.56c-3.22,1.54-4.72,5.31-5.21,8.85-.49,3.53-.27,7.2-1.38,10.59-1.48,4.53-5.11,7.98-8.61,11.22-1.69,1.57-3.38,3.14-5.08,4.71-1.22,1.13-2.46,2.28-3.97,2.98-1.97.91-4.2.98-6.31,1.49-3.75.91-7.11,3.23-10.94,3.67-7.74.89-15.03-6.05-22.64-4.41-2.35.51-5.52,1.46-6.57-.7"/><path class="cls-1" d="M253.04,240.27c-5.9,3.02-5.93,10.26-6.45,15.95-.32,3.51-1.41,6.55-3.6,9.34-2.02,2.56-4.51,4.74-6.9,6.95-1.31,1.21-2.61,2.44-3.93,3.64-1.26,1.16-2.55,2.25-4.21,2.76-1.52.47-3.13.6-4.68.94-1.69.37-3.28,1.02-4.87,1.69-2.92,1.23-5.79,2.4-9.02,2.02-2.85-.33-5.56-1.49-8.22-2.49-2.98-1.12-6.1-2.23-9.33-2.16-1.52.03-2.96.42-4.44.71-.91.18-2.46.57-3.01-.41-.95-1.68-3.54-.17-2.59,1.51,1.47,2.6,4.55,2.2,7.04,1.66,2.91-.63,5.47-.45,8.32.45,5.81,1.82,11.37,4.99,17.63,3.27,3.47-.96,6.56-2.86,10.13-3.51,1.56-.29,3.15-.48,4.64-1.06,1.69-.66,3.09-1.77,4.42-2.97,2.73-2.47,5.46-4.96,8.08-7.54,2.3-2.27,4.51-4.78,5.86-7.75,1.73-3.8,1.61-7.88,2.06-11.93.36-3.26,1.45-6.88,4.58-8.48,1.72-.88.21-3.47-1.51-2.59h0Z"/><path class="cls-2" d="M181.26,262.66c7.83-.55,16.65-1.6,21.41-7.85.92-1.2,1.67-2.59,2.93-3.43,2.81-1.86,6.67-.2,9.9-1.16,1.64-.49,3-1.62,4.48-2.47,3.39-1.96,7.39-2.47,11.27-2.94,6.23-.75,12.45-1.51,18.68-2.26"/><path class="cls-1" d="M181.26,264.16c8.26-.58,17.66-1.69,22.93-8.9.62-.85,1.17-1.82,2.02-2.47.97-.76,2.2-.85,3.39-.84,2.25.01,4.53.36,6.7-.41,2.44-.87,4.37-2.72,6.82-3.59,2.34-.84,4.81-1.22,7.26-1.52,6.51-.81,13.03-1.58,19.55-2.37,1.89-.23,1.92-3.23,0-3-5.74.69-11.47,1.39-17.21,2.08-5.1.62-10.17,1.16-14.6,4-1.02.65-2.03,1.38-3.21,1.69-1.21.32-2.49.22-3.72.17-2.16-.09-4.45-.14-6.34,1.09-1.91,1.24-2.85,3.42-4.4,5.02-1.38,1.42-3.07,2.5-4.88,3.3-4.45,1.99-9.5,2.42-14.3,2.75-1.92.14-1.94,3.14-.01,3h0Z"/><path class="cls-2" d="M182.35,269.76c5.61-.7,11.22-1.41,16.84-2.11,1.35-.17,2.74-.34,4.05.03,1.36.39,2.53,1.33,3.9,1.67,4.52,1.13,7.98-4.3,12.52-5.35,2.42-.56,5.27.11,7.21-1.45,1.35-1.08,1.82-2.92,2.95-4.22,1.59-1.85,4.19-2.36,6.35-3.48,2.01-1.04,3.66-2.64,5.29-4.22,3.16-3.07,6.32-6.14,9.48-9.21"/><path class="cls-1" d="M182.35,271.26c3.14-.39,6.27-.79,9.41-1.18,3.12-.39,6.33-1.05,9.47-1.11,2.64-.05,4.61,2.1,7.3,2.04,2.07-.05,3.94-1.08,5.62-2.21,1.72-1.16,3.42-2.61,5.44-3.22,2.33-.69,4.86-.09,7.11-1.16,2.36-1.12,2.75-3.55,4.43-5.28,1.61-1.67,4.21-2.07,6.18-3.18,2.66-1.5,4.8-3.85,6.97-5.96,2.57-2.5,5.15-5,7.72-7.5,1.39-1.35-.74-3.47-2.12-2.12-2.22,2.16-4.45,4.32-6.67,6.48-1.94,1.89-3.82,3.97-6,5.59-1.99,1.47-4.38,2-6.48,3.25-.9.53-1.69,1.2-2.32,2.03-.72.94-1.15,2.06-1.85,3.01-1.47,1.97-4.41,1.37-6.55,1.7-2.05.32-3.85,1.36-5.54,2.52-1.59,1.09-3.23,2.5-5.14,2.95-2.37.56-4.28-1.49-6.56-1.83-1.61-.24-3.21.04-4.8.24-1.73.22-3.47.43-5.2.65-3.47.43-6.93.87-10.4,1.3-1.91.23-1.93,3.23-.02,2.99h0Z"/><path class="cls-3" d="M89.4,77.45c2.54-.38,5.57-.67,8.88-.67,6,0,10.27,1.39,13.1,4.03,2.88,2.64,4.56,6.38,4.56,11.62s-1.63,9.6-4.66,12.58c-3.02,3.02-8.02,4.66-14.31,4.66-2.98,0-5.47-.14-7.58-.38v-31.84h.01ZM93.57,106.06c1.06.19,2.59.24,4.22.24,8.93,0,13.78-4.99,13.78-13.73.05-7.63-4.27-12.48-13.1-12.48-2.16,0-3.79.19-4.9.43v25.54Z"/><path class="cls-3" d="M121.37,77.45c2.11-.43,5.14-.67,8.02-.67,4.46,0,7.34.82,9.36,2.64,1.63,1.44,2.54,3.65,2.54,6.14,0,4.27-2.69,7.1-6.1,8.26v.14c2.5.86,3.98,3.17,4.75,6.53,1.06,4.51,1.82,7.63,2.5,8.88h-4.32c-.53-.91-1.25-3.7-2.16-7.73-.96-4.46-2.69-6.14-6.48-6.29h-3.94v14.02h-4.18v-31.92h0ZM125.54,92.18h4.27c4.46,0,7.3-2.45,7.3-6.14,0-4.18-3.02-6-7.44-6.05-2.02,0-3.46.19-4.13.38v11.81Z"/><path class="cls-3" d="M146.04,106.87c0-1.78,1.2-3.02,2.88-3.02s2.83,1.25,2.83,3.02-1.1,3.02-2.88,3.02c-1.68.01-2.83-1.29-2.83-3.02Z"/><path class="cls-3" d="M167.3,109.37v-32.35h4.56l10.37,16.37c2.4,3.79,4.27,7.2,5.81,10.51l.1-.05c-.38-4.32-.48-8.26-.48-13.3v-13.54h3.94v32.35h-4.22l-10.27-16.42c-2.26-3.6-4.42-7.3-6.05-10.8l-.14.05c.24,4.08.34,7.97.34,13.35v13.83h-3.96Z"/><path class="cls-3" d="M203.06,77.01v19.15c0,7.25,3.22,10.32,7.54,10.32,4.8,0,7.87-3.17,7.87-10.32v-19.15h4.22v18.87c0,9.94-5.23,14.02-12.24,14.02-6.62,0-11.62-3.79-11.62-13.83v-19.06h4.23Z"/><path class="cls-3" d="M236.08,80.57h-9.84v-3.55h23.95v3.55h-9.89v28.8h-4.22v-28.8Z"/><path class="cls-3" d="M252.93,104.28c1.87,1.15,4.61,2.11,7.49,2.11,4.27,0,6.77-2.26,6.77-5.52,0-3.02-1.73-4.75-6.1-6.43-5.28-1.87-8.54-4.61-8.54-9.17,0-5.04,4.18-8.78,10.46-8.78,3.31,0,5.71.77,7.15,1.58l-1.15,3.41c-1.06-.58-3.22-1.54-6.14-1.54-4.42,0-6.1,2.64-6.1,4.85,0,3.02,1.97,4.51,6.43,6.24,5.47,2.11,8.26,4.75,8.26,9.5,0,4.99-3.7,9.31-11.33,9.31-3.12,0-6.53-.91-8.26-2.06l1.06-3.5Z"/><path class="cls-8" d="M154.61,140.53h26.5c0,23.04-11.96,42-26.5,42s-26.41-18.8-26.5-41.74l26.5-.26Z"/><line class="cls-11" x1="155.11" y1="217.53" x2="155.11" y2="182.53"/><ellipse class="cls-9" cx="154.61" cy="220.03" rx="15.5" ry="1.5"/><path class="cls-10" d="M215.97,145.55l19.89-23.12c16.84,14.49,21.72,36.85,10.8,49.54-10.79,12.54-33.27,11.25-50.1-2.88l19.41-23.54Z"/><line class="cls-11" x1="275.79" y1="196.37" x2="246.34" y2="172.35"/><ellipse class="cls-12" cx="277.76" cy="198.69" rx="19.5" ry="2" transform="translate(-54.02 279.62) rotate(-49.29)"/></svg>