<?xml version="1.0" encoding="UTF-8"?><svg id="logo4" xmlns="http://www.w3.org/2000/svg" viewBox="0 0 557.48 427.8">

<defs>
<style>
.cls-1{fill:#a67c52;}.cls-1,.cls-2,.cls-3,.cls-4,.cls-5,.cls-6{stroke-width:0px;}.cls-3{fill:none;}.cls-7{stroke:#ed1e79;stroke-miterlimit:10;}.cls-7,.cls-4{fill:#fff;}.cls-5{fill:#42210b;}.cls-6{fill:#c69c6d;}


svg{
     
        width: 100px;
        height: 100px;
        animation: bounce 0.5s infinite alternate;
    }

    @keyframes bounce {
        0% {
            transform: translateY(0);
        }
        100% {
            transform: translateY(-10px);
        }
    }
        .cls-6:hover{
          fill:blue;
        }
        .cls-5:hover{
          fill:aqua;
        }
        

</style>
<script>
      // select elements you want to interact with first
      let thePath = document.querySelector('#logo4');

      // functions always go in the middle
      function logMyId() {        
        console.log("Dr.Nut_logo with setting icon with nuts branch");
      }

      // event handling at the bottom
      document.addEventListener('click', logMyId);
    </script>
</defs><g id="circle2"><ellipse class="cls-5" cx="376.48" cy="254.3" rx="180.5" ry="173"/><path class="cls-2" d="M376.48,81.8c48.09,0,93.3,17.95,127.29,50.54,16.53,15.84,29.5,34.29,38.57,54.83,9.38,21.26,14.14,43.85,14.14,67.13s-4.76,45.87-14.14,67.13c-9.06,20.54-22.04,38.99-38.57,54.83-33.99,32.59-79.2,50.54-127.29,50.54s-93.3-17.95-127.29-50.54c-16.53-15.84-29.5-34.29-38.57-54.83-9.38-21.26-14.14-43.85-14.14-67.13s4.76-45.87,14.14-67.13c9.06-20.54,22.04-38.99,38.57-54.83,33.99-32.59,79.2-50.54,127.29-50.54M376.48,80.8c-99.96,0-181,77.68-181,173.5s81.04,173.5,181,173.5,181-77.68,181-173.5-81.04-173.5-181-173.5h0Z"/></g>

<g id="circle1"><ellipse class="cls-6" cx="376.48" cy="254.3" rx="163.5" ry="153"/>
<path class="cls-2" d="M376.48,101.8c43.55,0,84.49,15.87,115.28,44.69,30.77,28.8,47.72,67.09,47.72,107.81s-16.95,79.01-47.72,107.81c-30.79,28.82-71.73,44.69-115.28,44.69s-84.49-15.87-115.28-44.69c-30.77-28.8-47.72-67.09-47.72-107.81s16.95-79.01,47.72-107.81c30.79-28.82,71.73-44.69,115.28-44.69M376.48,100.8c-90.57,0-164,68.72-164,153.5s73.43,153.5,164,153.5,164-68.72,164-153.5-73.43-153.5-164-153.5h0Z"/>
</g><circle class="cls-5" cx="380.98" cy="295.3" r="90"/>
<path class="cls-2" d="M380.98,205.8c49.35,0,89.5,40.15,89.5,89.5s-40.15,89.5-89.5,89.5-89.5-40.15-89.5-89.5,40.15-89.5,89.5-89.5M380.98,204.8c-49.98,0-90.5,40.52-90.5,90.5s40.52,90.5,90.5,90.5,90.5-40.52,90.5-90.5-40.52-90.5-90.5-90.5h0Z"/>
<path class="cls-1" d="M426.46,299.41c-5.12,6.63-6.14,16.17-2.55,23.73.55,1.15,1.24,2.31,2.37,2.91,1.36.73,3.14.53,4.34,1.5,1.25,1.02,1.34,2.9,2.25,4.23.98,1.43,2.85,2.07,4.58,1.92,1.73-.15,3.34-.97,4.77-1.95,5.23-3.59,8.69-9.75,8.71-16.09.01-1.94-.29-3.86-.59-5.78-.51-3.29-1.02-6.58-1.54-9.86-.22-1.4-.45-2.85-1.16-4.08-1.72-2.98-5.6-3.79-9.03-4.05-.79-.06-1.61-.1-2.36.17-.98.36-1.69,1.19-2.43,1.93-1.9,1.88-4.3,3.26-6.88,3.94"/>
<path class="cls-4" d="M425.17,298.65c-4.67,6.17-6.1,14.63-3.82,22.02.54,1.74,1.24,3.58,2.35,5.04,1.25,1.65,2.84,2.06,4.76,2.53,1.98.48,2,2.29,2.85,3.86.84,1.57,2.44,2.64,4.18,2.98,3.96.76,7.73-1.79,10.43-4.43,2.71-2.65,4.75-6.05,5.77-9.71,1.21-4.32.54-8.58-.14-12.93-.38-2.47-.77-4.93-1.15-7.4-.31-2.01-.55-4.13-1.74-5.85-2.3-3.32-6.66-4.21-10.45-4.4-1.13-.06-2.24.08-3.24.65-.97.56-1.69,1.43-2.5,2.19-1.68,1.58-3.72,2.66-5.93,3.28-1.86.52-1.07,3.42.8,2.89,1.67-.47,3.28-1.15,4.74-2.09,1.48-.96,2.58-2.24,3.93-3.34,1.2-.98,3.05-.57,4.47-.34,1.46.24,2.94.61,4.2,1.41,1.44.92,2.08,2.29,2.42,3.93.4,1.95.64,3.95.95,5.92.63,4.02,1.68,8.24,1.31,12.33-.29,3.21-1.58,6.29-3.44,8.9-1.86,2.6-4.95,5.6-8.24,6.09-1.46.22-3.05-.22-3.78-1.59-.69-1.29-.91-2.77-1.97-3.86-1.17-1.2-2.74-1.3-4.25-1.74-1.64-.48-2.35-2.19-2.93-3.66-2.75-7.03-1.53-15.17,3.01-21.16,1.16-1.54-1.44-3.04-2.59-1.52h0Z"/>
<path class="cls-1" d="M430.51,247.19c-3.12,1.26-5.5,3.94-7.08,6.91-2.35,4.42-3.11,9.83-1.31,14.5s6.38,8.35,11.39,8.37c1.83.01,3.7-.43,5.45.1.83.25,1.59.72,2.42.95,2.46.68,5.1-.85,6.52-2.98,1.41-2.13,1.87-4.73,2.29-7.25.41-2.41.81-4.81,1.22-7.22.22-1.33.45-2.68.22-4.01-.3-1.72-1.32-3.22-2.32-4.65-1.58-2.28-3.2-4.59-5.42-6.26-2.21-1.67-5.16-2.62-7.8-1.79-3.23,1.01-5.76,4.47-9.11,4.02"/><path class="cls-4" d="M429.76,245.89c-6.91,2.94-10.8,11.68-10.05,18.88.73,6.98,6.1,13.38,13.44,13.68,2.16.09,4.19-.48,6.26.39,1.77.74,3.48,1.13,5.35.46,3.68-1.3,5.53-4.78,6.36-8.39.49-2.17.8-4.39,1.17-6.59.36-2.11.91-4.3.94-6.45.04-3.85-2.78-7.22-5.06-10.08-2.62-3.29-6.48-6.19-10.92-5.71-1.95.21-3.61,1.14-5.21,2.21-1.55,1.03-3.09,2.25-5.05,2.06-1.92-.18-1.91,2.82,0,3,2.98.29,5.24-1.71,7.63-3.16,2.87-1.74,5.93-1.29,8.55.74,2.52,1.96,4.63,4.98,6.18,7.75.92,1.64.98,3.2.7,5.02-.29,1.92-.64,3.83-.97,5.74-.54,3.17-.76,7.23-3.16,9.65-.96.97-2.36,1.76-3.77,1.54-.69-.11-1.33-.47-1.97-.73-.97-.39-1.95-.59-2.99-.62-1.68-.05-3.36.33-5.03.06-1.39-.23-2.71-.77-3.89-1.52-2.46-1.56-4.27-4.04-5.08-6.82-1.95-6.78,1.42-15.69,8.1-18.53,1.75-.74.23-3.33-1.53-2.58h0Z"/><path class="cls-1" d="M327.92,234.89c-4.61,1.15-8.27,4.8-10.52,8.98-2.26,4.18-3.31,8.88-4.33,13.52-.28,1.28-.51,2.8.4,3.75.49.51,1.22.73,1.92.87,3.52.72,7.17.17,10.69-.54,5.87-1.19,12.3-3.33,15.01-8.67,1.36-2.68,1.55-5.78,1.71-8.78.11-1.97.13-4.16-1.19-5.62-.71-.78-1.7-1.22-2.66-1.63-3.25-1.41-6.89-2.84-10.24-1.67"/><path class="cls-4" d="M327.52,233.45c-6.46,1.71-10.71,7.28-13.05,13.25-1.34,3.41-2.24,7.06-2.92,10.65-.25,1.32-.4,2.74.24,3.98.81,1.57,2.5,2.04,4.12,2.29,3.76.57,7.57-.06,11.26-.85,2.93-.63,5.84-1.49,8.51-2.86,2.47-1.27,4.69-3.08,6.18-5.44,1.88-2.99,2.21-6.58,2.4-10.02.1-1.74.18-3.57-.46-5.23-.68-1.77-2.07-2.83-3.75-3.59-3.65-1.65-7.74-3.26-11.76-1.98-1.83.58-1.05,3.48.8,2.89,2.95-.94,5.95.18,8.67,1.35,1.14.49,2.57.96,3.14,2.16.52,1.1.44,2.42.39,3.6-.12,2.86-.24,5.97-1.6,8.55-1.07,2.04-2.79,3.56-4.77,4.7-2.07,1.19-4.34,1.94-6.65,2.53-2.77.71-5.63,1.29-8.49,1.4-1.44.06-2.96.03-4.36-.34-1.49-.4-1.14-1.67-.87-2.91.65-2.97,1.33-5.95,2.34-8.83,1.91-5.45,5.54-10.85,11.42-12.4,1.87-.5,1.08-3.4-.79-2.9h0Z"/><path class="cls-4" d="M343.87,242.34c2.88-2.24,4.83-5.36,6.97-8.25,2.1-2.83,4.41-5.01,7.72-6.32,3.08-1.22,6.44-2.22,8.54-4.96,1.11-1.45,1.55-3.54,3.18-4.53,1.52-.92,3.48-.94,5.2-.98,1.93-.05,1.93-3.05,0-3-1.94.05-3.93.16-5.73.92-1.83.76-2.99,2.07-3.89,3.8-.93,1.78-1.87,3.04-3.66,4.01-1.52.82-3.17,1.34-4.76,1.98-3.58,1.45-6.19,3.64-8.53,6.7-2.26,2.95-4.18,6.2-7.15,8.51-1.54,1.19.6,3.3,2.11,2.12h0Z"/><path class="cls-1" d="M357.18,306.14c-2.99-.17-6.31-.24-8.56,1.74-1.11.98-1.8,2.34-2.85,3.38-1.42,1.41-3.37,2.1-5.11,3.09-3.1,1.77-5.54,4.47-7.93,7.13-1.99,2.22-4.08,4.68-4.3,7.66-.18,2.45,1.07,4.94,3.09,6.34s4.73,1.72,7.05.92c.95-.33,1.85-.83,2.85-.98,1-.15,2.17.18,2.59,1.1.23.5.21,1.11.51,1.57.41.62,1.25.76,1.99.76,2.92,0,5.81-1.33,7.7-3.56.92-1.09,1.62-2.38,2.71-3.3,2.5-2.11,6.45-1.82,8.86-4.03,1.05-.96,1.67-2.29,2.21-3.61,1.49-3.65,2.53-7.6,2.04-11.51-.49-3.91-2.74-7.76-6.34-9.35"/><path class="cls-4" d="M357.18,304.64c-3.98-.22-8.03.02-10.7,3.37-.63.79-1.17,1.64-1.92,2.33-.78.73-1.76,1.22-2.7,1.7-1.94.99-3.73,2.06-5.39,3.48-1.69,1.44-3.18,3.1-4.66,4.75-1.4,1.56-2.85,3.18-3.79,5.06-1.81,3.63-1.28,8.02,1.86,10.76,1.47,1.28,3.31,2.02,5.25,2.2.97.09,1.95.01,2.91-.19,1.1-.23,2.08-.8,3.16-1.09,1.07-.28,1.36-.08,1.64.87.28.93.79,1.63,1.66,2.06,1.63.81,3.95.38,5.6-.17,1.86-.62,3.6-1.69,4.93-3.14,1.33-1.44,2.15-3.29,3.96-4.2,1.62-.82,3.47-1.08,5.15-1.76,1.75-.72,3.16-1.83,4.15-3.46,1.27-2.09,2.09-4.64,2.68-7.01.63-2.54.89-5.16.53-7.76-.59-4.26-3.05-8.39-7.03-10.24-1.74-.81-3.27,1.78-1.51,2.59,7.43,3.45,6.22,12.94,3.61,19.16-.67,1.6-1.49,2.99-3.1,3.76-1.42.69-3.02.94-4.5,1.49-1.5.56-2.85,1.33-3.91,2.55-1.14,1.32-1.97,2.86-3.41,3.91-1.37,1-3.05,1.62-4.74,1.69-.25.01-.72.08-.95-.04-.3-.17-.18-.19-.3-.54-.28-.82-.52-1.47-1.22-2.02-1.42-1.13-3.26-.95-4.85-.34-1.66.64-3.21,1.19-5.02.79-3.52-.78-5.53-4.41-4.21-7.78.65-1.66,1.85-3.07,3.02-4.39,1.27-1.44,2.56-2.88,3.94-4.21,1.55-1.49,3.23-2.73,5.15-3.71,1.72-.88,3.47-1.73,4.76-3.2,1.29-1.48,2.17-3.23,4.16-3.87,1.86-.6,3.86-.48,5.78-.38,1.94.08,1.94-2.92,0-3.02h0Z"/><path class="cls-4" d="M375.63,206.4c-4.54,12.89,2.79,25.98,1.13,39.05-.45,3.58-1.99,6.73-3.14,10.1-1.19,3.49-1.48,7.18-1.45,10.84.07,6.66,1.32,14.14-1.92,20.31-1.75,3.35-5.06,5.41-6.42,9.02-.97,2.57-1.45,8.78-5.36,8.55-1.93-.12-1.92,2.88,0,3,3.33.2,5.63-2.72,6.68-5.56.66-1.77.93-3.67,1.66-5.41.69-1.66,1.94-2.88,3.14-4.17,4.86-5.19,5.63-12.14,5.43-18.97-.12-3.95-.46-7.93-.01-11.87.45-3.99,2.31-7.43,3.45-11.23,1.97-6.56,1-13.5-.08-20.13-1.22-7.5-2.84-15.36-.24-22.75.66-1.81-2.23-2.59-2.87-.78h0Z"/><path class="cls-4" d="M377.34,230.68c-3.65,1.58-6.76,4.54-8.44,8.17-.97,2.11-1.28,4.51-2.42,6.53-1.06,1.88-2.69,3.36-3.92,5.12-2.55,3.65-2.93,8.17-4.57,12.2-.71,1.74-1.71,3.49-3.2,4.68-1.61,1.29-3.8,1.41-5.45,2.63-1.95,1.45-3.01,3.84-4.51,5.7-1.76,2.17-3.75,4.13-5.74,6.08-1.38,1.36.74,3.48,2.12,2.12,1.72-1.69,3.44-3.39,5.02-5.22,1.46-1.69,2.56-3.62,3.96-5.35,1.39-1.72,3.61-1.82,5.42-2.9,1.6-.96,2.87-2.39,3.83-3.97,2.21-3.62,2.63-7.87,4.22-11.73.86-2.09,2.26-3.69,3.67-5.42,1.42-1.74,2.39-3.53,3.05-5.68.72-2.34,1.48-4.53,3.09-6.43,1.47-1.74,3.3-3.04,5.38-3.94,1.77-.77.25-3.35-1.51-2.59h0Z"/><path class="cls-1" d="M338.34,282.78c-1.05-2.22-3.78-3.17-6.23-3.1-2.46.07-4.82.92-7.25,1.29-3.25.5-6.57.13-9.84.45s-6.72,1.52-8.52,4.27c-.91,1.39-1.31,3.04-2.15,4.47-.65,1.1-1.58,2.13-1.67,3.41-.06.93.34,1.83.74,2.67,1,2.12,1.99,4.24,2.99,6.36,1.27,2.71,2.91,5.72,5.82,6.4,3.09.71,5.97-1.54,8.69-3.18,5.74-3.45,12.69-4.48,18.41-7.98,2.56-1.57,5.04-4.07,4.83-7.07-.22-3.01-2.99-5.1-5.51-6.77"/><path class="cls-4" d="M339.64,282.02c-1.72-3.3-5.69-4.15-9.1-3.7-2.23.29-4.37,1.03-6.61,1.27-2.34.26-4.69.13-7.04.21-3.66.13-7.53.87-10.29,3.45-1.5,1.4-2.15,3.22-2.98,5.04-.78,1.7-2.24,3.14-2.41,5.07-.18,2.03,1.08,3.98,1.91,5.75.91,1.94,1.77,3.92,2.77,5.82,1.61,3.04,4.18,5.9,7.93,5.68,4.09-.24,7.46-3.55,11.07-5.17,3.84-1.73,7.94-2.82,11.79-4.54,3.63-1.62,8.04-4.19,8.85-8.46.85-4.48-2.79-7.52-6.13-9.74-1.61-1.07-3.11,1.52-1.51,2.59,2.23,1.49,5.53,3.74,4.63,6.88-.86,3.02-4.34,4.76-6.96,5.96-3.13,1.44-6.45,2.41-9.65,3.66-1.58.62-3.14,1.29-4.63,2.09-1.5.81-2.89,1.8-4.38,2.62-1.38.76-3,1.45-4.59.95-1.38-.44-2.36-1.62-3.11-2.81-1.79-2.85-3.1-6.11-4.48-9.17-.33-.73-.68-1.45-.44-2.25.18-.6.62-1.14.96-1.66.98-1.51,1.45-3.23,2.35-4.77,1.51-2.57,4.63-3.58,7.44-3.88,2.18-.23,4.38-.12,6.57-.18,2.01-.06,3.97-.33,5.93-.77,2.99-.67,7.72-1.91,9.53,1.57.88,1.72,3.47.21,2.58-1.51h0Z"/><path class="cls-4" d="M377.23,243.9c-.31,2.99,1.23,5.59,2.48,8.19,1.32,2.74,1.49,5.51,1.59,8.5.09,2.94.28,5.94,1.71,8.59,1.39,2.57,3.73,4.45,4.07,7.51.35,3.06-.41,6.13.35,9.17.66,2.65,2.22,4.96,3.43,7.37,1.17,2.34,1.67,4.48.48,6.92-.59,1.2-1.25,2.38-1.44,3.73-.2,1.44.2,2.79.9,4.04.75,1.33,2.01,2.56,2.26,4.12.24,1.48-1.43,2.25-1.91,3.53-.64,1.68.34,2.51,1.43,3.56.59.57.49,1.61-.42,1.82-1.88.44-1.08,3.34.8,2.89,2.32-.55,3.61-3.26,2.74-5.45-.2-.5-.48-.92-.87-1.3-.18-.17-.74-.41-.83-.63.09.22-.01.03.21-.21.99-1.06,1.85-2.16,1.89-3.67.04-1.45-.56-2.85-1.31-4.05-.74-1.18-1.96-2.43-1.95-3.9.01-1.31.91-2.51,1.43-3.67.6-1.34.94-2.74.81-4.21-.22-2.66-1.6-5.02-2.85-7.33-.64-1.19-1.29-2.38-1.7-3.67-.53-1.66-.51-3.35-.45-5.07.12-3.19.1-6.23-1.69-9-.78-1.2-1.75-2.28-2.49-3.51-.79-1.3-1.2-2.74-1.39-4.24-.44-3.45.01-7-.99-10.38-.95-3.22-3.65-6.14-3.28-9.65.19-1.91-2.81-1.9-3.01,0h0Z"/><path class="cls-1" d="M392.4,322.41c3.36,2.07,6.73,4.14,10.09,6.22,1.48.91,2.98,1.84,4.2,3.08,2.01,2.05,3.12,4.81,4.05,7.53,1.25,3.65,2.27,7.55,1.52,11.34-.76,3.86-3.24,7.12-5.66,10.22-.78,1-1.58,2.01-2.53,2.85-1.73,1.51-3.91,2.39-6.09,3.12-6.69,2.24-13.73,3.32-20.77,3.78-2.77.18-5.65.26-8.23-.79-5.01-2.05-7.52-8.69-5.12-13.54,1.1-2.22,3-3.98,4.06-6.22.86-1.83,1.12-3.9,1.96-5.74,1.55-3.39,4.86-5.59,8.08-7.47,1.67-.98,3.44-2.01,4.41-3.69.6-1.04.83-2.25,1.36-3.32,1.07-2.18,3.2-3.6,5.23-4.92,1.36-.88,2.72-1.77,4.08-2.65"/><path class="cls-4" d="M391.65,323.71c2.38,1.47,4.77,2.94,7.15,4.4,2.13,1.31,4.51,2.51,6.37,4.21,1.71,1.55,2.77,3.63,3.58,5.76.9,2.39,1.72,4.87,2.1,7.4.79,5.23-1.55,9.37-4.63,13.38-1.46,1.9-2.88,3.77-5.02,4.95-2.23,1.23-4.77,1.94-7.22,2.6-5.02,1.36-10.18,2.14-15.37,2.54-4.32.34-9.38.75-12.3-3.12-2.2-2.91-2.49-6.84-.55-9.93,1.25-1.99,2.88-3.69,3.78-5.9.88-2.16,1.15-4.51,2.47-6.48,1.37-2.03,3.48-3.48,5.53-4.74,2.02-1.24,4.25-2.32,5.68-4.28.75-1.03,1.1-2.22,1.55-3.4.45-1.17,1.18-2.09,2.11-2.92,2.05-1.83,4.61-3.19,6.9-4.68,1.61-1.05.11-3.65-1.51-2.59-2.32,1.51-4.76,2.92-6.92,4.66-2.02,1.63-2.96,3.5-3.87,5.87-.92,2.38-3.24,3.41-5.29,4.66-2.07,1.27-4.15,2.69-5.73,4.56-1.7,2-2.45,4.24-3.18,6.72-.77,2.62-2.41,4.45-3.88,6.68-2.43,3.66-2.53,8.22-.45,12.08,2.36,4.38,6.82,6.06,11.61,6.04,5.67-.02,11.5-.85,17.02-2.07,5.2-1.15,11.25-2.55,14.88-6.75,3.35-3.88,6.84-8.43,7.45-13.68.38-3.21-.33-6.45-1.29-9.5-.87-2.76-1.86-5.61-3.58-7.97-1.78-2.44-4.32-3.95-6.85-5.51-3.01-1.86-6.03-3.71-9.04-5.57-1.64-1.03-3.15,1.56-1.5,2.58h0Z"/><path class="cls-4" d="M426.77,246.42c-1.84.81-3.36-2.34-3.92-3.55-.89-1.9-1.86-3.88-3.79-4.92-2.02-1.09-4.45-1.02-6.64-1.54-2.06-.49-4.15-1.29-5.58-2.92-1.35-1.54-1.94-3.6-2.96-5.35-.99-1.69-2.32-2.98-4.12-3.75-1.66-.71-3.46-.98-5.13-1.65-.56-.22-1.16-.51-1.56-.97-.68-.79-.56-1.97-.9-2.9-.89-2.46-3.89-3.34-6.04-4.37-2.83-1.36-5.65-2.71-8.48-4.07-1.73-.83-3.26,1.75-1.51,2.59,2.61,1.25,5.22,2.5,7.83,3.76,1.21.58,2.43,1.15,3.64,1.75.45.22.98.44,1.35.79.51.49.52,1.12.65,1.77.81,4.19,4.9,4.61,8.29,5.78,4.19,1.45,4.36,6.49,7.34,9.28,1.67,1.56,3.82,2.5,6.01,3.07,1.06.28,2.14.45,3.23.61,1.2.17,2.57.28,3.57,1.04,1.92,1.48,2.3,4.38,3.81,6.22,1.62,1.97,4,3,6.43,1.94,1.76-.79.23-3.38-1.52-2.61h0Z"/><path class="cls-4" d="M427.36,295.77c-2.73-.34-5.23-2.06-6.61-4.42-1.52-2.61-1.46-5.81-3.11-8.41-1.34-2.12-3.23-3.78-5.05-5.46-1.67-1.54-3.55-3.22-4.31-5.43-1.02-2.97.33-6.2-.82-9.19-.88-2.29-2.67-3.99-4.49-5.55-1.71-1.47-3.76-2.98-4.64-5.14-.59-1.45-.51-3.07-.69-4.59-.19-1.58-.61-3.05-1.29-4.49-3.2-6.84-10.54-9.93-17.12-12.56-1.79-.72-2.57,2.18-.8,2.89,5.91,2.36,12.87,5.19,15.48,11.53,1.19,2.88.55,6.11,1.91,8.94,1.06,2.19,2.97,3.79,4.78,5.34,1.69,1.45,3.68,3.04,4.24,5.3.4,1.61.06,3.31.06,4.94,0,1.5.25,2.93.85,4.3,2.05,4.67,7.19,6.86,9.62,11.23.86,1.54,1.09,3.32,1.59,4.99.47,1.6,1.19,3.07,2.25,4.37,2.04,2.53,4.95,4.01,8.15,4.41,1.91.24,1.89-2.77,0-3h0Z"/><rect class="cls-3" width="50.76" height="3.24"/><path class="cls-7" d="M250.79,187.04c.72-.58,1.45-.95,2.19-1.1s1.53-.27,2.36-.36l5.86-26.72c-.06,0-.24,0-.53-.01-.29-.01-.61-.04-.96-.08s-.7-.12-1.04-.22c-.34-.11-.6-.26-.77-.45-.08-.12-.18-.29-.29-.49-.12-.2-.23-.42-.34-.66s-.2-.48-.28-.73-.12-.49-.12-.74c0-.4.15-.74.46-1.02.3-.27.68-.49,1.12-.66.45-.17.93-.29,1.44-.36.52-.07.98-.11,1.41-.11,1.97,0,3.79.07,5.47.2s3.25.42,4.71.86,2.84,1.07,4.12,1.87c1.29.81,2.52,1.89,3.69,3.25.44.51.86,1.08,1.25,1.72s.75,1.32,1.05,2.07.55,1.55.74,2.4.28,1.76.28,2.71c0,.51-.02,1.05-.07,1.61s-.11,1.05-.19,1.45c-.45,2.04-1.09,3.85-1.91,5.43-.82,1.58-1.77,2.98-2.86,4.2-1.09,1.22-2.28,2.28-3.57,3.18s-2.64,1.68-4.03,2.35-2.8,1.25-4.24,1.74-2.84.93-4.2,1.32h.02c-.61.21-1.27.4-1.97.55s-1.41.29-2.13.4-1.43.19-2.14.25-1.38.09-2,.09c-.69,0-1.27-.05-1.73-.15s-.85-.23-1.14-.4c-.29-.17-.5-.36-.62-.57-.12-.21-.19-.44-.19-.69,0-.35.09-.72.27-1.1s.47-.7.88-1.03ZM261.1,179.46c-.19.9-.38,1.82-.59,2.77s-.4,1.88-.59,2.8l.54-.13c.34-.09.81-.22,1.39-.4s1.26-.4,2.03-.66,1.57-.58,2.41-.95,1.74-.81,2.68-1.33,1.88-1.11,2.8-1.77,1.8-1.38,2.65-2.15,1.59-1.61,2.23-2.5c.64-.89,1.15-1.82,1.54-2.8s.57-1.99.57-3.05-.19-2.09-.56-3.05c-.38-.96-.88-1.85-1.51-2.67s-1.37-1.55-2.2-2.19c-.84-.64-1.71-1.19-2.61-1.65s-1.82-.81-2.75-1.04-1.81-.36-2.64-.36c-1.17,3.42-2.17,6.88-3,10.4s-1.62,7.1-2.39,10.73Z"/><path class="cls-7" d="M286.25,187.67c.89-4.03,1.81-8.01,2.77-11.95.95-3.93,1.88-7.92,2.77-11.95.11-.53.22-1.03.33-1.51s.21-.95.3-1.43.17-.96.22-1.44.08-.99.08-1.52c0-.4-.02-.77-.07-1.11s-.07-.71-.07-1.14c0-.4.05-.84.14-1.29.23-1.07.57-1.87,1-2.4s1.08-.79,1.96-.79c.36,0,.71.04,1.04.12s.67.17,1,.28c.36.12.73.23,1.11.32s.77.13,1.16.13c.31,0,.62-.02.91-.05s.64-.07,1.02-.11c.38-.04.84-.07,1.36-.11.52-.04,1.18-.05,1.98-.05.44,0,.95.02,1.55.05.59.04,1.21.11,1.85.24s1.29.3,1.95.54,1.27.56,1.84.96,1.07.9,1.51,1.49.77,1.3.98,2.13c.11.4.18.77.22,1.11.04.33.06.66.06.98,0,1.07-.24,2.13-.73,3.17-.55,1.18-1.29,2.28-2.21,3.31s-2.01,2-3.25,2.92c-.48.37-1.05.75-1.69,1.15s-1.27.77-1.89,1.14c-.62.36-1.17.69-1.66.99s-.83.53-1.02.69c.55.3,1.09.61,1.64.94s1.11.72,1.68,1.18,1.15,1.01,1.73,1.66c.59.65,1.2,1.45,1.83,2.39s1.29,2.06,1.97,3.34c.68,1.29,1.39,2.8,2.12,4.54.19.42.28.87.28,1.35,0,.37-.07.74-.2,1.11s-.31.7-.54,1-.5.54-.81.73-.65.28-1.01.28c-.55,0-1-.23-1.36-.69s-.7-1.06-1.03-1.8-.67-1.58-1.02-2.51-.79-1.87-1.3-2.83c-.56-1.02-1.18-1.99-1.86-2.9s-1.4-1.71-2.17-2.38c-.77-.67-1.55-1.2-2.37-1.6-.81-.4-1.62-.59-2.44-.59h-.35c-.48,0-.92.05-1.3.15s-.75.18-1.11.25c-.48-.19-.84-.51-1.05-.95s-.33-.93-.33-1.48v-.37l-1.88,8.32c-.06.26-.15.62-.26,1.08s-.23.96-.38,1.51-.29,1.12-.43,1.72-.29,1.16-.42,1.69-.25,1-.35,1.43-.18.74-.22.95c-.22.44-.5.79-.83,1.04s-.7.38-1.09.38c-.69,0-1.16-.23-1.43-.7s-.4-1.01-.4-1.62c0-.25.02-.5.05-.75.03-.27.07-.51.12-.74ZM297.76,157.88c-.09.35-.23.86-.41,1.53s-.38,1.43-.6,2.27c-.22.85-.45,1.75-.7,2.72s-.5,1.94-.75,2.92-.49,1.92-.73,2.84-.45,1.73-.63,2.46c.31-.46.78-.87,1.41-1.23s1.33-.7,2.11-1.02c.61-.25,1.36-.59,2.25-1.04s1.82-.96,2.8-1.54,1.95-1.21,2.93-1.89,1.85-1.37,2.62-2.09c.77-.71,1.4-1.43,1.89-2.14s.73-1.4.73-2.07-.2-1.17-.61-1.54-.91-.66-1.52-.86-1.28-.32-2-.38-1.4-.09-2.03-.09c-1.12,0-2.25.08-3.38.24s-2.26.46-3.38.91Z"/><path class="cls-7" d="M328.93,172.17c0,1.21-.41,2.27-1.24,3.16s-1.77,1.33-2.84,1.33c-.81,0-1.5-.32-2.07-.96-.57-.64-.86-1.42-.86-2.34,0-1.21.43-2.28,1.3-3.21.87-.92,1.82-1.39,2.87-1.39.81,0,1.49.33,2.03.98s.81,1.46.81,2.43Z"/><path class="cls-7" d="M367.32,159.05c.09-.46.21-.95.35-1.47s.33-.99.56-1.43c.23-.43.54-.79.91-1.08.38-.29.85-.44,1.43-.44.55,0,1.04.17,1.46.51s.82.69,1.16,1.04c.41.3.8.91,1.17,1.82s.76,2.04,1.16,3.38.83,2.85,1.29,4.54.97,3.46,1.52,5.31,1.18,3.74,1.86,5.66c.69,1.93,1.47,3.81,2.34,5.64.14.28.3.61.49.99s.38.73.57,1.07.38.62.54.85.29.34.36.34c.05,0,.1-.13.16-.4s.13-.58.21-.95c.08-.37.16-.75.25-1.14s.17-.7.25-.95c.3-.81.62-1.74.97-2.79.35-1.05.74-2.32,1.17-3.8.43-1.49.9-3.25,1.42-5.29.52-2.04,1.09-4.46,1.71-7.26.16-.69.32-1.47.5-2.34s.35-1.76.52-2.67.31-1.79.43-2.65.21-1.61.26-2.24c0-.11.01-.29.02-.55s.04-.56.08-.9.09-.68.15-1.04c.06-.36.14-.69.25-.99s.23-.55.39-.74c.16-.19.34-.29.56-.29s.49.04.81.11c.32.07.61.18.88.32.3.46.57,1.01.81,1.65s.36,1.51.36,2.6c0,.69-.06,1.51-.19,2.47s-.29,1.99-.48,3.09-.41,2.23-.66,3.39c-.24,1.16-.49,2.28-.74,3.34-.25,1.07-.49,2.04-.71,2.93-.23.89-.42,1.62-.57,2.21-.28,1.02-.57,2.07-.88,3.16-.3,1.08-.64,2.22-1.01,3.41s-.77,2.45-1.2,3.78-.91,2.75-1.44,4.26c-.23.69-.5,1.37-.81,2.06-.3.69-.65,1.31-1.04,1.86-.39.55-.83,1-1.32,1.35s-1.04.51-1.65.51c-.36,0-.73-.06-1.11-.17-.38-.11-.71-.35-.97-.7-1.28-1.67-2.42-3.57-3.42-5.69s-1.89-4.34-2.68-6.65-1.49-4.66-2.1-7.02-1.16-4.63-1.66-6.8l-.14-.61-.18-.75c-.06-.25-.11-.49-.16-.7-.05-.21-.12-.38-.19-.51s-.15-.2-.25-.2-.21.19-.35.58c-.14.39-.28.82-.42,1.31-.14.48-.27.96-.39,1.41s-.19.75-.22.87c-.11.46-.27,1.11-.49,1.97s-.46,1.82-.74,2.89-.57,2.21-.89,3.41-.63,2.35-.93,3.47-.58,2.15-.84,3.1-.48,1.72-.66,2.3c-.14.46-.31,1.05-.52,1.77-.2.72-.41,1.45-.61,2.18s-.39,1.4-.56,1.99-.28.99-.33,1.19c-.19.67-.46,1.18-.83,1.52s-.74.51-1.11.51c-.23,0-.47-.09-.7-.28s-.44-.41-.62-.67-.33-.55-.45-.86-.18-.59-.18-.83c0-.14.04-.37.12-.67.08-.31.2-.83.38-1.57l.61-2.72,6.96-25.31Z"/><path class="cls-7" d="M400.44,178.3c.34-1.78.71-3.37,1.11-4.77.4-1.4.79-2.7,1.18-3.91s.76-2.36,1.11-3.46.66-2.24.93-3.42l.28-1.27c.06-.32.12-.71.16-1.19s.1-.97.15-1.49.13-1.03.22-1.54c.09-.51.23-.97.41-1.37s.41-.74.69-.99.64-.38,1.08-.38c.48,0,.89.1,1.23.29s.61.45.81.77.35.68.45,1.1.14.84.14,1.28c0,.37-.02.74-.06,1.11s-.1.71-.18,1.03c-.17.79-.45,1.72-.84,2.77s-.82,2.22-1.29,3.5-.95,2.66-1.43,4.15-.91,3.06-1.29,4.71c-.22.93-.41,1.95-.57,3.06s-.25,2.11-.25,3.01c0,.72.05,1.4.16,2.05s.3,1.21.59,1.69c.28.48.66.87,1.14,1.15.48.28,1.08.42,1.82.42.56,0,1.14-.05,1.75-.16.6-.11,1.32-.36,2.14-.77,1.22-.62,2.37-1.41,3.46-2.39s2.09-2.09,3.02-3.34,1.79-2.6,2.58-4.04c.79-1.44,1.5-2.94,2.14-4.49s1.21-3.12,1.7-4.7c.49-1.58.91-3.14,1.25-4.67.14-.65.25-1.26.33-1.84.08-.57.14-1.16.18-1.76s.07-1.24.09-1.93.07-1.47.13-2.35c.05-.7.22-1.32.53-1.84s.77-.78,1.39-.78c.39,0,.73.18,1.02.53.29.35.53.79.71,1.31s.33,1.07.42,1.65.14,1.1.14,1.56c0,.88-.08,1.83-.23,2.85-.16,1.02-.34,2-.56,2.93-.45,2.02-1,4.06-1.63,6.1s-1.39,4.04-2.26,5.99-1.89,3.85-3.06,5.69c-1.16,1.84-2.5,3.56-4.02,5.16-.75.79-1.56,1.57-2.44,2.34s-1.79,1.46-2.74,2.07-1.93,1.11-2.93,1.49-1.99.57-2.98.57c-1.42,0-2.66-.22-3.7-.67-1.05-.45-1.92-1.08-2.61-1.89-.7-.81-1.21-1.77-1.56-2.89s-.52-2.35-.52-3.68c0-.63.05-1.33.14-2.1.11-.76.23-1.51.37-2.25Z"/><path class="cls-7" d="M441.87,186.75c.59-2.92,1.26-5.87,2-8.85s1.46-5.92,2.17-8.85c.3-1.21.56-2.32.79-3.31s.42-1.9.57-2.71.27-1.54.35-2.21c.08-.66.12-1.27.12-1.84v-.36c0-.13-.01-.29-.02-.49-.16,0-.5.1-1.04.29s-1.17.45-1.9.77-1.49.67-2.3,1.07c-.8.4-1.55.8-2.24,1.2-.55.32-1,.58-1.37.79-.37.21-.68.37-.95.49-.27.11-.51.19-.73.24s-.45.07-.68.07c-.48,0-.9-.21-1.25-.63s-.53-.97-.53-1.64c0-.39.04-.73.11-1.02.07-.29.18-.55.33-.78s.35-.44.6-.65c.25-.2.55-.41.91-.62,3.95-2.32,7.95-4.03,12-5.11s8.11-1.62,12.19-1.62c.33,0,.72.01,1.17.03s.92.05,1.39.09.94.11,1.39.18.85.17,1.2.28c.36.12.67.38.94.77.27.39.4.8.4,1.24,0,.35-.03.7-.08,1.03s-.15.62-.29.87c-.14.25-.32.44-.55.59s-.5.22-.83.22c-.56-.07-1.21-.16-1.93-.26-.73-.11-1.46-.16-2.19-.16-1.47,0-2.93.04-4.39.12s-2.96.31-4.49.7c-.08.04-.13.13-.15.28s-.04.34-.06.57c-.05.95-.12,1.79-.21,2.51s-.22,1.44-.39,2.17-.36,1.5-.6,2.34-.51,1.84-.82,3.01-.68,2.57-1.09,4.2-.87,3.6-1.37,5.9l-1.12,5.12c-.27,1.18-.47,2.24-.62,3.18s-.28,1.87-.39,2.79c-.06.3-.3.58-.71.85s-.9.4-1.46.4c-.33,0-.62-.1-.89-.3-.27-.2-.48-.46-.66-.78-.17-.32-.29-.66-.35-1.04s-.07-.76.02-1.13Z"/><path class="cls-7" d="M462.36,184.9c.53.21,1.07.46,1.63.74s1.13.55,1.72.81c.59.26,1.21.47,1.86.65s1.34.26,2.07.26c.86,0,1.73-.11,2.6-.34.88-.23,1.73-.57,2.57-1.02.84-.45,1.64-.99,2.4-1.64.77-.64,1.47-1.39,2.11-2.23.7-.9,1.29-1.71,1.76-2.44.47-.73.85-1.38,1.14-1.95.29-.57.5-1.07.62-1.48s.19-.77.19-1.07c0-.44-.13-.82-.4-1.15s-.62-.59-1.07-.81c-.45-.21-.95-.37-1.51-.46s-1.15-.15-1.76-.15c-.36,0-.78.01-1.27.04s-.98.05-1.48.08-.98.05-1.45.07-.88.03-1.22.03c-.52,0-1.05-.07-1.61-.2-.55-.13-1.1-.35-1.63-.65s-1.02-.7-1.48-1.21-.83-1.14-1.12-1.9c-.09-.25-.18-.54-.26-.87s-.12-.7-.12-1.08c0-.42.03-.82.08-1.2s.12-.74.2-1.1c.22-.88.58-1.77,1.09-2.68s1.12-1.79,1.83-2.65,1.48-1.7,2.32-2.51,1.7-1.57,2.58-2.28,1.75-1.36,2.6-1.93,1.64-1.06,2.38-1.47c1.03-.56,2.08-.97,3.15-1.23s2.13-.38,3.18-.38c.62,0,1.22.09,1.78.28.56.18,1.06.45,1.49.81s.77.79,1.02,1.31.38,1.11.38,1.78c0,.39-.04.71-.12.98-.08.26-.18.48-.3.65-.12.17-.26.29-.41.36-.15.07-.3.11-.46.11-.42,0-.81-.05-1.16-.16s-.69-.22-1.02-.36-.66-.26-.98-.37c-.33-.11-.69-.17-1.08-.17-1.16,0-2.33.26-3.53.78s-2.36,1.18-3.49,1.98c-1.13.8-2.2,1.69-3.21,2.68s-1.91,1.95-2.71,2.88c-.42.49-.73.99-.93,1.48s-.29.96-.29,1.4c0,.65.25,1.16.75,1.53s1.11.55,1.83.55c.42,0,.9-.01,1.43-.03s1.07-.04,1.63-.07c.55-.03,1.09-.05,1.62-.08.52-.03.99-.04,1.39-.04.97,0,1.9.15,2.79.46.89.31,1.68.76,2.37,1.36s1.24,1.34,1.65,2.23c.41.89.62,1.91.62,3.05,0,.7-.09,1.42-.28,2.14s-.45,1.45-.77,2.18c-.33.73-.7,1.45-1.12,2.17-.42.71-.87,1.41-1.34,2.1-.84,1.23-1.79,2.39-2.82,3.49s-2.14,2.04-3.32,2.85c-1.17.81-2.41,1.45-3.71,1.93s-2.64.71-4.02.71c-.59,0-1.2-.06-1.83-.18s-1.24-.3-1.85-.54c-.61-.24-1.18-.54-1.72-.9s-1.01-.77-1.42-1.23-.73-.96-.97-1.52c-.24-.55-.36-1.16-.36-1.81,0-.32.04-.62.13-.91.08-.32.3-.46.64-.46Z"/></svg>