<?xml version="1.0" encoding="UTF-8"?><svg id="logo3" xmlns="http://www.w3.org/2000/svg" viewBox="0 0 371 279.92"><defs><style>.cls-1{letter-spacing:0em;}.cls-2,.cls-3,.cls-4,.cls-5,.cls-6{stroke-width:0px;}.cls-3,.cls-7{fill:#ff0;}.cls-8,.cls-9,.cls-10{fill:none;}.cls-8,.cls-9,.cls-10,.cls-7,.cls-11{stroke-miterlimit:10;}.cls-8,.cls-9,.cls-11{stroke:#000;}.cls-8,.cls-11{stroke-width:3px;}.cls-12{fill:#006837;font-family:MyriadPro-Regular, 'Myriad Pro';font-size:21px;}.cls-9,.cls-10,.cls-7{stroke-width:5px;}.cls-10,.cls-7{stroke:#ed1e79;}.cls-13{letter-spacing:0em;}.cls-4{fill:lime;}.cls-11{fill:#754c24;}.cls-5{fill:#c69c6d;}.cls-6{fill:blue;opacity:.96;}.cls-14{letter-spacing:0em;}

.cls-5:hover {
    fill: yellow;
}
svg {
        width: 100px;
        height: 100px;
        animation: swing 2s ease-in-out infinite alternate;
    }

    @keyframes swing {
        0% {
            transform: rotate(0deg);
        }
        100% {
            transform: rotate(10deg);
        }
    }

</style>
<script>
      // select elements you want to interact with first
      let thePath = document.querySelector('#logo3');

      // functions always go in the middle
      function logMyId() {        
        console.log("Dr.Nut_logo with nuts");
      }

      // event handling at the bottom
      document.addEventListener('click', logMyId);
    </script>
</defs><rect class="cls-5" x="1.5" y="123.5" width="368" height="84" rx="18.5" ry="18.5"/><path class="cls-2" d="M351,125c9.37,0,17,7.63,17,17v47c0,9.37-7.63,17-17,17H20c-9.37,0-17-7.63-17-17v-47c0-9.37,7.63-17,17-17h331M351,122H20c-11,0-20,9-20,20v47c0,11,9,20,20,20h331c11,0,20-9,20-20v-47c0-11-9-20-20-20h0Z"/><line class="cls-9" x1="40.5" y1="209" x2="40.5" y2="241.5"/><line class="cls-7" x1="40.5" y1="123" x2="40.5" y2="89.5"/><line class="cls-9" x1="329.5" y1="208.5" x2="329.5" y2="242.5"/><line class="cls-10" x1="329.5" y1="123.5" x2="329.5" y2="89.5"/><line class="cls-8" x1="329.5" y1="230.5" x2="329.5" y2="240.5"/><ellipse class="cls-11" cx="181" cy="42" rx="45.5" ry="40.5"/><line class="cls-7" x1="39.5" y1="92.5" x2="140.5" y2="60.5"/><line class="cls-3" x1="330.5" y1="92.5" x2="221.5" y2="61.5"/><line class="cls-10" x1="330.5" y1="92.5" x2="221.5" y2="61.5"/><line class="cls-9" x1="39.5" y1="238.5" x2="180.5" y2="277.5"/><line class="cls-9" x1="330.5" y1="239.5" x2="179.5" y2="277.5"/><path class="cls-6" d="M69.52,142.18c3.33-.48,7.29-.84,11.63-.84,7.86,0,13.46,1.74,17.16,5.04,3.77,3.3,5.97,7.98,5.97,14.52s-2.14,12-6.1,15.72c-3.96,3.78-10.5,5.82-18.74,5.82-3.9,0-7.17-.18-9.93-.48v-39.78ZM74.99,177.94c1.38.24,3.39.3,5.53.3,11.69,0,18.04-6.24,18.04-17.16.06-9.54-5.6-15.6-17.16-15.6-2.83,0-4.97.24-6.41.54v31.92Z"/><path class="cls-6" d="M111.39,142.18c2.77-.54,6.73-.84,10.5-.84,5.85,0,9.62,1.02,12.26,3.3,2.14,1.8,3.33,4.56,3.33,7.68,0,5.34-3.52,8.88-7.99,10.32v.18c3.27,1.08,5.22,3.96,6.22,8.16,1.38,5.64,2.39,9.54,3.27,11.1h-5.66c-.69-1.14-1.63-4.62-2.83-9.66-1.26-5.58-3.52-7.68-8.49-7.86h-5.16v17.52h-5.47v-39.9ZM116.86,160.6h5.6c5.85,0,9.56-3.06,9.56-7.68,0-5.22-3.96-7.5-9.75-7.56-2.64,0-4.53.24-5.41.48v14.76Z"/><path class="cls-6" d="M143.71,178.96c0-2.22,1.57-3.78,3.77-3.78s3.71,1.56,3.71,3.78-1.45,3.78-3.77,3.78c-2.2,0-3.71-1.62-3.71-3.78Z"/><path class="cls-6" d="M171.56,182.08v-40.44h5.97l13.58,20.46c3.14,4.74,5.6,9,7.61,13.14l.13-.06c-.5-5.4-.63-10.32-.63-16.62v-16.92h5.16v40.44h-5.53l-13.45-20.52c-2.95-4.5-5.78-9.12-7.92-13.5l-.19.06c.31,5.1.44,9.96.44,16.68v17.28h-5.16Z"/><path class="cls-6" d="M218.4,141.64v23.94c0,9.06,4.21,12.9,9.87,12.9,6.29,0,10.31-3.96,10.31-12.9v-23.94h5.53v23.58c0,12.42-6.85,17.52-16.03,17.52-8.68,0-15.21-4.74-15.21-17.28v-23.82h5.53Z"/><path class="cls-6" d="M261.66,146.08h-12.89v-4.44h31.37v4.44h-12.95v36h-5.53v-36Z"/><path class="cls-6" d="M283.73,175.72c2.45,1.44,6.04,2.64,9.81,2.64,5.6,0,8.87-2.82,8.87-6.9,0-3.78-2.26-5.94-7.99-8.04-6.92-2.34-11.19-5.76-11.19-11.46,0-6.3,5.47-10.98,13.71-10.98,4.34,0,7.48.96,9.37,1.98l-1.51,4.26c-1.38-.72-4.21-1.92-8.05-1.92-5.79,0-7.99,3.3-7.99,6.06,0,3.78,2.58,5.64,8.43,7.8,7.17,2.64,10.81,5.94,10.81,11.88,0,6.24-4.84,11.64-14.84,11.64-4.09,0-8.55-1.14-10.81-2.58l1.38-4.38Z"/><path class="cls-5" d="M177.92,67.52c-3.67-.36-7.52.27-10.97-1.04-4.79-1.82-7.52-6.89-8.96-11.81-.84-2.87-1.39-5.81-1.95-8.74-1.42-7.54-2.83-15.08-4.25-22.62,3.88.05,7.8.12,11.56,1.05,5.86,1.45,11.18,5.03,14.72,9.92,6.78,9.36,6.35,22.92.1,32.65"/><path class="cls-2" d="M177.92,66.02c-4.4-.39-9.28.57-12.99-2.4-3.13-2.51-4.73-6.49-5.75-10.25-1.34-4.93-2.1-10.04-3.04-15.06s-1.93-10.27-2.89-15.4l-1.45,1.9c4.53.06,9.1.16,13.43,1.67,3.72,1.3,7.1,3.55,9.79,6.43,5.27,5.64,7.24,13.61,6.26,21.17-.56,4.3-2.08,8.43-4.39,12.09-1.04,1.64,1.56,3.14,2.59,1.51,4.5-7.11,6.13-15.98,4.3-24.2s-7.77-15.65-15.75-19.1c-5.16-2.23-10.68-2.49-16.24-2.57-1.04-.01-1.62.97-1.45,1.9,1.62,8.62,3.13,17.27,4.87,25.86,1.31,6.49,3.45,14.35,9.82,17.68,4.02,2.11,8.53,1.38,12.88,1.76,1.92.17,1.91-2.83,0-3h0Z"/><path class="cls-5" d="M197.71,24.28c-.14,6.48-.67,12.94-1.59,19.35,1.13-1.4,2.65-2.43,4.14-3.44,3.9-2.64,7.93-5.33,12.55-6.22"/><path class="cls-2" d="M196.21,24.28c-.14,6.34-.64,12.67-1.53,18.95-.1.68.07,1.32.69,1.69.54.32,1.4.27,1.82-.23,1.98-2.36,4.91-4.01,7.51-5.62s5.44-3.04,8.52-3.66c1.89-.38,1.09-3.27-.8-2.89-3.32.67-6.38,2.19-9.24,3.96s-5.98,3.54-8.11,6.09l2.51,1.46c.93-6.55,1.49-13.14,1.64-19.75.04-1.93-2.96-1.93-3,0h0Z"/><path class="cls-5" d="M213.5,34.17c-.63,3.81-1.46,7.58-2.48,11.3-.69,2.49-1.47,4.99-2.84,7.18-2.4,3.84-6.45,6.44-10.74,7.88s-8.87,1.8-13.4,1.97c-.37.01-.79.01-1.07-.23-.34-.3-.34-.82-.32-1.27.26-4.78.53-9.56.79-14.34.13-2.41.27-4.83.85-7.17,1.64-6.6,6.72-11.94,12.6-15.35"/><path class="cls-2" d="M212.06,33.77c-.52,3.09-1.15,6.17-1.93,9.21-.69,2.71-1.38,5.51-2.71,7.99-2.48,4.62-7.24,7.34-12.18,8.65-2.9.77-5.88,1.09-8.86,1.27-.75.04-1.59.16-2.34.11.2.01-.03.92.11,0,.05-.31.04-.67.05-.99.09-1.65.18-3.3.27-4.95.18-3.2.34-6.41.54-9.61.17-2.81.51-5.61,1.6-8.23,2.12-5.1,6.36-9.04,11.04-11.79,1.66-.98.16-3.57-1.51-2.59-4.76,2.79-9.06,6.71-11.57,11.68-3.02,5.99-2.67,13.02-3.04,19.55-.1,1.81-.2,3.63-.3,5.44-.08,1.42-.36,3.11.98,4.05,1.19.84,3.29.38,4.64.3,1.7-.11,3.39-.28,5.07-.52,5.91-.86,11.97-3.11,15.95-7.76,2.3-2.68,3.54-5.93,4.49-9.29,1.09-3.85,1.94-7.77,2.6-11.72.32-1.89-2.57-2.7-2.89-.8h0Z"/><path class="cls-4" d="M197.7,26.96c1.69-1.05,3.41-2.04,5.16-2.99.76-.41,1.52-.81,2.32-1.11,1.37-.51,2.85-.73,4.31-.64-.45.74-.04,1.68.25,2.5,1.04,2.94.47,6.17-.12,9.23"/><path class="cls-2" d="M198.08,27.6c1.81-1.12,3.65-2.19,5.53-3.19s3.75-1.55,5.87-1.44l-.65-1.13c-.46.9-.29,1.77.03,2.69.35.99.6,1.97.67,3.03.13,2.09-.26,4.15-.65,6.19-.18.94,1.26,1.35,1.45.4.38-1.96.75-3.95.72-5.95-.01-.96-.12-1.93-.35-2.86-.19-.76-.96-1.98-.57-2.75.27-.52-.06-1.1-.65-1.13-2.21-.12-4.29.44-6.25,1.45s-3.98,2.2-5.91,3.39c-.82.51-.07,1.81.76,1.3h0Z"/><path class="cls-2" d="M177.23,66.41c.23-4.84-3.04-8.88-4.25-13.39-.65-2.43-1.27-4.72-2.59-6.89-1.42-2.33-2.95-4.59-4.43-6.88-.52-.81-1.82-.06-1.3.76,1.36,2.11,2.74,4.2,4.08,6.32,1.42,2.25,2.1,4.55,2.79,7.1,1.17,4.35,4.42,8.35,4.2,12.99-.05.96,1.45.96,1.5,0h0Z"/><path class="cls-5" d="M197.24,23.45c.13,5.81-.07,11.63-.6,17.41,4.3-3.34,9.3-5.76,14.59-7.05.46-.11,1.05-.17,1.32.22.29.41.15,1.23.66,1.25"/><path class="cls-2" d="M196.49,23.45c.12,5.81-.08,11.62-.6,17.41-.05.53.69.99,1.13.65,2.69-2.07,5.63-3.82,8.76-5.12,1.55-.65,3.15-1.19,4.77-1.63.33-.09.73-.26,1.08-.27s.33.1.41.42c.15.53.39.95.95,1.09.94.22,1.34-1.23.4-1.45.2.05.13.2.07-.13-.02-.12-.06-.24-.09-.36-.09-.27-.22-.52-.44-.71-.5-.44-1.19-.41-1.81-.29-1.8.36-3.58,1-5.28,1.68-3.44,1.38-6.66,3.21-9.59,5.47l1.13.65c.52-5.79.73-11.6.6-17.41-.02-.96-1.52-.97-1.5,0h0Z"/><path class="cls-4" d="M200.75,24.96c-.66,0-1.38.02-1.88.44-.52.43-.67,1.16-.78,1.82-.4,2.35-.81,4.7-1.21,7.05-.37,2.14-.74,4.31-.58,6.48.01.15.03.3.13.41.2.21.55.08.79-.07,3.96-2.27,7.78-4.79,11.43-7.53.72-.54,1.5-1.2,1.54-2.1"/><path class="cls-2" d="M200.75,24.21c-1.07,0-2.2.17-2.83,1.14s-.67,2.27-.85,3.36c-.48,2.77-1.03,5.54-1.38,8.33-.16,1.25-.41,2.78-.11,4.02.31,1.3,1.54.95,2.41.45,2.41-1.4,4.78-2.89,7.08-4.46,1.26-.86,2.5-1.74,3.72-2.65,1.05-.79,1.99-1.56,2.16-2.93.12-.96-1.38-.95-1.5,0-.08.63-.7,1.09-1.17,1.45-.56.44-1.14.85-1.72,1.26-1.07.77-2.15,1.52-3.25,2.26s-2.21,1.45-3.33,2.14c-.6.37-1.21.74-1.82,1.1-.26.16-.52.31-.79.46-.18.1-.35.2-.53.3.18.06.24,0,.18-.16.11-.24-.01-.81,0-1.08,0-.31.03-.62.05-.93.06-.76.16-1.52.28-2.27.21-1.33.45-2.66.68-3.99s.46-2.66.68-3.99c.09-.54.13-1.26.4-1.74.35-.6,1.02-.58,1.65-.58.96,0,.97-1.51,0-1.5h0Z"/><path class="cls-2" d="M197.47,24.09l-.09.36c-.03.1-.04.2-.01.3,0,.1.03.19.09.28.05.09.11.16.19.21.07.07.16.11.26.13l.2.03c.14,0,.26-.03.38-.1l.15-.12c.09-.09.16-.2.19-.33l.09-.36c.03-.1.04-.2.01-.3,0-.1-.03-.19-.09-.28-.05-.09-.11-.16-.19-.21-.07-.07-.16-.11-.26-.13l-.2-.03c-.14,0-.26.03-.38.1l-.15.12c-.09.09-.16.2-.19.33h0Z"/><path class="cls-2" d="M209.28,34.15c.16-.09.32-.17.49-.25.08-.04.08-.04,0,0,.04-.02.08-.03.13-.05.09-.03.17-.06.26-.09.33-.11.66-.19,1-.24.09-.01.09-.01,0,0,.05,0,.09-.01.14-.01.09,0,.18-.02.27-.02.05,0,.36-.03.37,0-.11-.02-.13-.02-.05,0,.03,0,.07.01.1.02.03,0,.06.02.1.03.08.03.06.02-.04-.02.03.01.06.03.08.05-.09-.07-.1-.08-.04-.03.05.06.04.04-.03-.04.02.03.03.06.04.09.17.36.71.47,1.03.27.37-.24.45-.64.27-1.03-.39-.83-1.45-.89-2.23-.8-.94.11-1.82.39-2.65.85-.34.19-.49.69-.27,1.03s.66.48,1.03.27h0Z"/><text class="cls-12" transform="translate(91.36 235.68)"><tspan x="0" y="0">O</tspan><tspan class="cls-14" x="14.47" y="0">r</tspan><tspan x="21.17" y="0">ganic</tspan></text><text class="cls-12" transform="translate(166.92 235.8)"><tspan x="0" y="0">Ene</tspan><tspan class="cls-14" x="32.51" y="0">r</tspan><tspan x="39.21" y="0">gy D</tspan><tspan class="cls-13" x="79.27" y="0">r</tspan><tspan class="cls-1" x="86.22" y="0">ink</tspan></text></svg>