<?xml version="1.0" encoding="UTF-8"?><svg id="settings" xmlns="http://www.w3.org/2000/svg" viewBox="0 0 419 429.8"><defs><style>.cls-1{fill:#c1272d;}.cls-1,.cls-2,.cls-3,.cls-4,.cls-5,.cls-6,.cls-7,.cls-8{stroke-width:0px;}.cls-3,.cls-9{fill:none;}.cls-9{stroke:#000;stroke-miterlimit:10;stroke-width:3px;}.cls-4{fill:#fff;}.cls-5{fill:#f15a24;}.cls-6{fill:#d9e021;}.cls-10{font-family:TimesNewRomanPSMT, 'Times New Roman';font-size:60px;isolation:isolate;}.cls-7{fill:lime;}.cls-8{fill:blue;}
 #orange { 
        transition: all 1s ease; 
        transform-origin: 50%;
      }

      #settings:hover #orange { 
        transform: rotate(170deg); 
      }
      #yellow:hover{
        fill:white;
      }
      
</style>
<script>
      // select elements you want to interact with first
      let thePath = document.querySelector('#settings');

      // functions always go in the middle
      function logMyId() {        
        console.log("Dr.Nut_logo with setting icon");
      }

      // event handling at the bottom
      document.addEventListener('click', logMyId);
    </script>
</defs><ellipse class="cls-4" cx="160.3" cy="252" rx="81.2" ry="73.5"/><path class="cls-2" d="M160.3,179c44.5,0,80.8,32.8,80.8,73s-36.2,73-80.8,73-80.8-32.8-80.8-73,36.3-73,80.8-73M160.3,178c-45.2,0-81.8,33.1-81.8,74s36.6,74,81.8,74,81.8-33.1,81.8-74-36.6-74-81.8-74h0Z"/><g id="orange"><path class="cls-5" d="M245.2,429.4v-1.4c0-30.6-19.2-55.5-42.8-55.5-11.3,0-22,5.7-30,16-7.9,10.1-12.4,23.5-12.7,37.9-15.5-4-30.6-9.8-44.8-17.3,12.7-23.6,9.5-52.6-7.5-69.1-8.2-7.9-18.6-12.1-30-12.1-13.2,0-26.1,5.6-36.4,15.9-8.3-11.8-15.5-24.4-21.3-37.6,22.4-11,34.5-34.9,28.9-57.1-5-19.6-22.8-32.8-44.3-32.8-1.2,0-2.5,0-3.8.1v-1.3c0-11.9,1-24,2.8-35.8,5.4,1.8,10.8,2.7,16.2,2.7,17.1,0,31.4-8.8,38.3-23.6,10.1-21.7.6-50.2-21.7-65,7.1-10.9,15.2-21.2,24-30.6,10.2,15.1,25.3,24.1,40.5,24.1,7.6,0,14.8-2.3,20.9-6.8,18.4-13.4,23-42.2,10.7-67.3,8.8-3.6,17.8-6.6,27-9,2.7,27.6,20.9,48.4,42.4,48.4S242.7,29.6,244.3.6c14.7,2.6,29.1,6.8,42.9,12.6-7.4,25.9,1.4,52.7,20.5,62.4,4.9,2.5,10.1,3.7,15.5,3.7,12.3,0,24.8-6.4,34.2-17.7,13.5,14.1,25,30.1,34.4,47.4-22.3,5.4-37.8,24-37.8,45.6,0,26,22.6,47.1,50.4,47.1,4.5,0,9-.6,13.4-1.7.3,5.1.5,10.1.5,15,0,12.4-1,24.9-3,37.1-8.2-5.5-17.3-8.4-26.3-8.4-10.3,0-19.4,3.8-26.5,11-17.3,17.5-16.2,50.2,2.6,72.7,4.4,5.3,9.4,9.6,15,13-6.8,10.1-14.5,19.6-22.9,28.3-9.7-14.9-24.7-23.7-40.2-23.7-5.1,0-10,1-14.8,2.8-24.7,9.7-36.9,41.8-27.2,71.5.2.7.5,1.4.7,2-9.7,3.5-20.1,6.2-30.5,8.1Z"/><path class="cls-2" d="M245.1,1.2c14.3,2.6,28.4,6.7,41.8,12.3-7.3,26.1,1.6,52.8,20.9,62.6,4.9,2.5,10.2,3.8,15.8,3.8,12.3,0,24.7-6.3,34.2-17.4,13.1,13.8,24.5,29.4,33.6,46.3-22.2,5.6-37.5,24.3-37.5,45.9,0,26.2,22.8,47.6,50.9,47.6,4.3,0,8.7-.5,12.9-1.5.3,4.9.5,9.7.5,14.4,0,12.1-1,24.4-2.9,36.3-8.2-5.3-17.1-8-25.9-8-10.4,0-19.7,3.8-26.9,11.1-17.5,17.7-16.4,50.6,2.6,73.4,4.3,5.2,9.2,9.5,14.7,12.8-6.6,9.7-14,18.9-22.1,27.3-9.8-14.7-24.8-23.4-40.2-23.4-5.1,0-10.2,1-15,2.9-24.9,9.8-37.2,42.2-27.5,72.1.2.5.3,1,.5,1.6-9.6,3.3-19.6,5.9-29.7,7.8v-.8c0-30.9-19.4-56-43.3-56-11.5,0-22.2,5.7-30.4,16.2-7.8,10-12.4,23.3-12.8,37.5-15.1-3.9-29.8-9.6-43.6-16.9,12.5-23.8,9.3-52.7-7.8-69.2-8.3-8-18.8-12.3-30.3-12.3-13.1,0-26,5.5-36.3,15.6-8-11.5-15-23.8-20.8-36.6,22.3-11.1,34.4-35.1,28.8-57.4-5-19.8-23-33.2-44.8-33.2-1.1,0-2.2,0-3.3.1v-.8c0-11.7.9-23.5,2.7-35.1,5.2,1.7,10.5,2.5,15.8,2.5,17.3,0,31.8-8.9,38.8-23.9,10.2-21.8.8-50.3-21.4-65.4,6.9-10.5,14.7-20.5,23.3-29.7,10.3,14.9,25.4,23.8,40.6,23.8,7.7,0,15-2.4,21.2-6.9,18.5-13.4,23.2-42.2,11.1-67.4,8.4-3.4,17.1-6.3,25.9-8.6,3,27.6,21.2,48.3,42.8,48.3,22.5-.2,41.3-22.7,43.1-51.7M244.1,0c-1.3,28.9-19.7,51.7-42.2,51.7s-39.5-21.2-42-48.5c-9.7,2.4-19.1,5.6-28.2,9.4,12.3,24.6,8.1,53.8-10.3,67.1-6.2,4.5-13.3,6.6-20.6,6.6-14.7,0-30.1-8.8-40.5-24.4-9.2,9.7-17.5,20.2-24.8,31.6,22.3,14.6,32.1,42.8,21.9,64.7-7,15-21.7,23.3-37.9,23.3-5.5,0-11.1-.9-16.6-2.9-1.9,11.8-2.9,24-2.9,36.4v1.9c1.4-.1,2.9-.2,4.3-.2,20.7,0,38.8,12.6,43.8,32.4,5.7,22.3-7.1,46.2-29.1,56.7,6,13.7,13.4,26.6,21.9,38.6,10.5-10.7,23.7-16.2,36.4-16.2,10.8,0,21.2,3.9,29.6,12,17.3,16.7,19.8,45.8,7.2,68.9,14.4,7.7,29.8,13.7,45.9,17.7.4-29.9,19.2-54,42.2-54s42.3,24.6,42.3,55v2c11-1.9,21.7-4.7,32-8.3-.3-.8-.6-1.7-.9-2.5-9.6-29.5,2.5-61.2,26.9-70.9,4.8-1.9,9.7-2.8,14.6-2.8,15.5,0,30.5,9,40.1,24,8.7-9,16.6-18.8,23.7-29.2-5.5-3.2-10.7-7.6-15.3-13.1-18.7-22.4-19.8-54.6-2.6-72.1,7.2-7.3,16.5-10.8,26.2-10.8,8.9,0,18.2,3,26.6,8.7,2.1-12.3,3.2-25,3.2-38,0-5.3-.2-10.5-.5-15.7-4.4,1.2-9,1.8-13.8,1.8-27.6,0-49.9-20.9-49.9-46.6,0-21.9,16.2-40.3,38-45.2-9.5-17.9-21.4-34.2-35.2-48.5-9.4,11.4-21.9,17.9-34.2,17.9-5.2,0-10.4-1.2-15.3-3.6-19.4-9.8-27.6-36.6-20.1-62.2-13.9-5.7-28.6-10.1-43.9-12.7h0Z"/></g><ellipse id="yellow" class="cls-6" cx="203.6" cy="219.5" rx="142.5" ry="133.5"/><rect class="cls-3" x="69.4" y="182.5" width="315.7" height="75"/><text id="text" class="cls-10" transform="translate(69.45 224.23)"><tspan x="0" y="0">DR. NUTS</tspan></text><g id="glass3"><path class="cls-1" d="M162.5,270.8h28.5c0,22.5-12.9,41-28.5,41s-28.5-18.5-28.5-41v-.4l28.5.4Z"/><line class="cls-9" x1="162" y1="335.8" x2="162" y2="311.8"/><ellipse class="cls-1" cx="162" cy="337.8" rx="17" ry="2"/></g><g id="glass2"><path class="cls-8" d="M204.5,254.8h28.5c0,22.5-12.9,41-28.5,41s-28.5-18.5-28.5-41v-.4l28.5.4Z"/><line class="cls-9" x1="204" y1="319.8" x2="204" y2="295.8"/><ellipse class="cls-8" cx="204" cy="321.8" rx="17" ry="2"/></g><g id="glass1"><path class="cls-7" d="M244.5,235.8h28.5c0,22.5-12.9,41-28.5,41s-28.5-18.5-28.5-41v-.4l28.5.4Z"/><line class="cls-9" x1="244" y1="300.8" x2="244" y2="276.8"/><ellipse class="cls-7" cx="244" cy="302.8" rx="17" ry="2"/></g></svg>