<?xml version="1.0" encoding="UTF-8"?><svg id="square" xmlns="http://www.w3.org/2000/svg" viewBox="0 0 318.5 318.6"><defs>
<style>.cls-1{fill:#c1272d;}.cls-1,.cls-2,.cls-3,.cls-4,.cls-5,.cls-6{stroke-width:0px;}.cls-7{fill:#fcee21;font-family:InkFree, 'Ink Free';}.cls-7,.cls-8,.cls-9{isolation:isolate;}.cls-7,.cls-9{font-size:24px;}.cls-8{fill:#fff;font-family:MVBoli, 'MV Boli';font-size:36px;}.cls-9{fill:lime;font-family:LucidaSansUnicode, 'Lucida Sans Unicode';}.cls-3{fill:none;}.cls-4{fill:#f7931e;}.cls-5{fill:#42210b;}.cls-6{fill:#c69c6d;}

.cls-1:hover {
    fill: blue;
}

.cls-4:hover {
    fill: yellow;

}

</style>
<script>
      // select elements you want to interact with first
      let thePath = document.querySelector('#square');

      // functions always go in the middle
      function logMyId() {        
        console.log("Dr.Nut_logo");
      }

      // event handling at the bottom
      document.addEventListener('click', logMyId);
    </script></defs><path class="cls-4" d="M159.25,317.1c-5,0-9.6-1.9-13.1-5.4L6.85,172.4c-7.2-7.2-7.2-19,0-26.2L146.15,6.9c3.5-3.5,8.1-5.4,13.1-5.4s9.6,1.9,13.1,5.4l139.3,139.3c3.5,3.5,5.4,8.1,5.4,13.1s-1.9,9.6-5.4,13.1l-139.3,139.3c-3.5,3.5-8.1,5.4-13.1,5.4Z"/><path class="cls-5" d="M159.25,3c4.6,0,8.8,1.8,12,4.9l139.3,139.3c6.6,6.6,6.6,17.4,0,24l-139.3,139.4c-3.2,3.2-7.5,5-12,5s-8.8-1.8-12-5L7.95,171.3c-6.6-6.6-6.6-17.4,0-24L147.25,8c3.2-3.2,7.4-5,12-5M159.25,0c-5.1,0-10.2,1.9-14.1,5.8L5.85,145.2c-7.8,7.8-7.8,20.5,0,28.3l139.3,139.3c3.9,3.9,9,5.8,14.1,5.8s10.2-1.9,14.1-5.8l139.3-139.3c7.8-7.8,7.8-20.5,0-28.3L173.35,5.9c-3.8-3.9-9-5.9-14.1-5.9h0Z"/><path class="cls-1" d="M64.75,272.3c-10.2,0-18.5-8.3-18.5-18.5V56.8c0-10.2,8.3-18.5,18.5-18.5h197c10.2,0,18.5,8.3,18.5,18.5v197c0,10.2-8.3,18.5-18.5,18.5H64.75Z"/><path class="cls-5" d="M261.75,39.8c9.4,0,17,7.6,17,17v197c0,9.4-7.6,17-17,17H64.75c-9.4,0-17-7.6-17-17V56.8c0-9.4,7.6-17,17-17h197M261.75,36.8H64.75c-11,0-20,9-20,20v197c0,11,9,20,20,20h197c11,0,20-9,20-20V56.8c0-11-9-20-20-20h0Z"/><path class="cls-6" d="M166.25,88c1-6.6,4-12.9,9-17.3s11.9-6.7,18.5-5.5c3.3.6,6.5,2,9.6,3.5,4.2,1.9,8.5,3.9,11.4,7.4,1.6,1.9,2.7,4.1,4.3,5.9,1.5,1.8,3.5,3.8,2.7,6-.5,1.4-2,2.1-3.4,2.7-9.7,4.1-19.6,8.2-30.1,8.7-9,.5-18.1-1.8-25.8-6.5-.6-.4-1.3-.8-1.7-1.4-1.2-1.8.8-4.8,2.9-4.3"/><path class="cls-2" d="M167.75,88.4c1.3-8.6,6.2-16.7,14.3-20.3,3.9-1.7,8.4-2.2,12.6-1.2,2.5.6,4.9,1.6,7.2,2.7,2,.9,4,1.8,5.9,2.9s3.8,2.3,5.3,4c1.6,1.7,2.7,3.7,4,5.5,1,1.3,3.5,3.3,3.2,5.1-.3,1.7-3.7,2.5-5,3.1-9.2,3.8-18.8,7.5-28.8,7.7-5.2.1-10.5-.8-15.4-2.6-2.5-.9-5-2.1-7.3-3.4-.7-.4-2-.9-1.9-1.9.1-.6.7-1.5,1.4-1.4,1.9.3,2.7-2.6.8-2.9-2.2-.4-4.1.8-4.9,2.8-.9,2.4.4,4.3,2.3,5.5,4.7,2.9,10.1,4.9,15.5,6,11.5,2.2,22.8-.5,33.5-4.6,2.7-1.1,5.5-2.2,8.2-3.4,2-.9,4.2-2,4.6-4.4.4-2.6-1.6-4.7-3.2-6.6-1.8-2.1-3-4.5-4.8-6.5-3.6-3.9-8.7-6.1-13.4-8.2-5.1-2.2-10.2-3.6-15.7-2.6-11.7,2.1-19.7,12.5-21.4,23.9-.2,1.9,2.7,2.7,3,.8h0Z"/><path class="cls-6" d="M166.95,81.2c-8.8-9.8-22.4-15.3-35.6-14.2-1.2.1-2.5.2-3.5.9-1.3.8-2.2,2.1-3.2,3.3-3.2,4-8,6.6-11.3,10.6s-4.6,10.6-.7,14c1.4,1.2,3.3,1.8,5.2,2.3,5,1.5,10.1,2.9,15.2,4.4,5.6,1.6,11.3,3.2,17,2.8,6.9-.6,13.2-4.1,19.3-7.5"/><path class="cls-2" d="M168.05,80.2c-6.1-6.7-14.2-11.4-23-13.5-4.5-1.1-9.1-1.5-13.7-1.1-2.3.2-4.4.7-6.1,2.5-1.6,1.7-2.8,3.5-4.5,5-3.4,3.1-7.5,5.7-9.8,9.7-1.9,3.2-2.9,7.4-1.5,11,1.9,4.7,7,5.6,11.3,6.9,5.3,1.5,10.6,3.2,15.9,4.6,5.8,1.5,11.8,2.4,17.7,1,5.6-1.3,10.8-4.2,15.7-7.1,1.7-1,.2-3.5-1.5-2.6-4.1,2.3-8.2,4.7-12.7,6.1-4.6,1.5-9.3,1.6-14.1.7-5-1-9.8-2.6-14.6-4-2.4-.7-4.7-1.4-7.1-2.1-2.1-.6-4.6-1-6.4-2.5-2.7-2.2-2.3-6.2-1-9,1.6-3.7,5-6.2,8-8.7,1.7-1.4,3.3-2.8,4.7-4.5,1.3-1.6,2.3-3.4,4.5-3.9,2-.4,4.1-.4,6.1-.3s4,.3,6,.7c9.1,1.7,17.5,6.4,23.8,13.2,1.5,1.4,3.6-.7,2.3-2.1h0Z"/><rect class="cls-3" x="84.85" y="127.1" width="169.9" height="32.7"/><text class="cls-8" transform="translate(84.83 154.72)"><tspan x="0" y="0">DR.NUTS </tspan></text><text class="cls-7" transform="translate(101.95 187.32)"><tspan x="0" y="0">Alcohol Free</tspan></text><text class="cls-9" transform="translate(97.39 221.08)"><tspan x="0" y="0">Give it a go!</tspan></text></svg>